<svg version="1.1" class="highcharts-root" style="font-family: DwsSlab; font-size: 1rem;" xmlns="http://www.w3.org/2000/svg" width="741" height="425" viewBox="0 0 741 425" aria-hidden="false" aria-label="Interactive chart"><desc aria-hidden="true">Created with Highcharts 12.4.0</desc><defs aria-hidden="true"><filter id="highcharts-drop-shadow-1"><feDropShadow dx="1" dy="1" flood-color="#000000" flood-opacity="0.75" stdDeviation="2.5"></feDropShadow></filter><clipPath id="highcharts-tdtbwsm-312-"><rect x="0" y="0" width="661" height="250" fill="none"></rect></clipPath><clipPath id="highcharts-tdtbwsm-348-"><rect x="70" y="60" width="661" height="250" fill="none"></rect></clipPath></defs><rect fill="#ffffff" class="highcharts-background" filter="none" x="0" y="0" width="741" height="425" rx="0" ry="0" aria-hidden="true"></rect><rect fill="none" class="highcharts-plot-background" x="70" y="60" width="661" height="250" filter="none" aria-hidden="true"></rect><g class="highcharts-pane-group" data-z-index="0" aria-hidden="true"></g><g class="highcharts-grid highcharts-xaxis-grid" data-z-index="1" aria-hidden="true"><path fill="none" stroke="#ebeef0" stroke-width="0" stroke-dasharray="none" data-z-index="1" class="highcharts-grid-line" d="M 118.5 60 L 118.5 310" opacity="1"></path><path fill="none" stroke="#ebeef0" stroke-width="0" stroke-dasharray="none" data-z-index="1" class="highcharts-grid-line" d="M 217.5 60 L 217.5 310" opacity="1"></path><path fill="none" stroke="#ebeef0" stroke-width="0" stroke-dasharray="none" data-z-index="1" class="highcharts-grid-line" d="M 315.5 60 L 315.5 310" opacity="1"></path><path fill="none" stroke="#ebeef0" stroke-width="0" stroke-dasharray="none" data-z-index="1" class="highcharts-grid-line" d="M 414.5 60 L 414.5 310" opacity="1"></path><path fill="none" stroke="#ebeef0" stroke-width="0" stroke-dasharray="none" data-z-index="1" class="highcharts-grid-line" d="M 513.5 60 L 513.5 310" opacity="1"></path><path fill="none" stroke="#ebeef0" stroke-width="0" stroke-dasharray="none" data-z-index="1" class="highcharts-grid-line" d="M 611.5 60 L 611.5 310" opacity="1"></path><path fill="none" stroke="#ebeef0" stroke-width="0" stroke-dasharray="none" data-z-index="1" class="highcharts-grid-line" d="M 710.5 60 L 710.5 310" opacity="1"></path></g><g class="highcharts-grid highcharts-yaxis-grid" data-z-index="1" aria-hidden="true"><path fill="none" stroke="#ebeef0" stroke-width="1" stroke-dasharray="none" data-z-index="1" class="highcharts-grid-line" d="M 70 310.5 L 731 310.5" opacity="1"></path><path fill="none" stroke="#ebeef0" stroke-width="1" stroke-dasharray="none" data-z-index="1" class="highcharts-grid-line" d="M 70 260.5 L 731 260.5" opacity="1"></path><path fill="none" stroke="#ebeef0" stroke-width="1" stroke-dasharray="none" data-z-index="1" class="highcharts-grid-line" d="M 70 210.5 L 731 210.5" opacity="1"></path><path fill="none" stroke="#ebeef0" stroke-width="1" stroke-dasharray="none" data-z-index="1" class="highcharts-grid-line" d="M 70 160.5 L 731 160.5" opacity="1"></path><path fill="none" stroke="#ebeef0" stroke-width="1" stroke-dasharray="none" data-z-index="1" class="highcharts-grid-line" d="M 70 110.5 L 731 110.5" opacity="1"></path><path fill="none" stroke="#ebeef0" stroke-width="1" stroke-dasharray="none" data-z-index="1" class="highcharts-grid-line" d="M 70 60.5 L 731 60.5" opacity="1"></path></g><rect fill="none" class="highcharts-plot-border" data-z-index="1" stroke="#cccccc" stroke-width="0" x="70" y="60" width="661" height="250" aria-hidden="true"></rect><g class="highcharts-axis highcharts-xaxis" data-z-index="2" aria-hidden="true"><path fill="none" class="highcharts-axis-line" stroke="#ebeef0" stroke-width="1" data-z-index="7" d="M 70 310.5 L 731 310.5"></path></g><g class="highcharts-axis highcharts-yaxis" data-z-index="2" aria-hidden="true"><path fill="none" class="highcharts-axis-line" stroke="#ebeef0" stroke-width="0" data-z-index="7" d="M 70 60 L 70 310"></path></g><g class="highcharts-series-group" data-z-index="3" filter="none" aria-hidden="false"><g class="highcharts-series highcharts-series-0 highcharts-line-series highcharts-color-0" data-z-index="0.1" opacity="1" transform="translate(70,60) scale(1 1)" clip-path="url(#highcharts-tdtbwsm-312-)" aria-hidden="true"><path fill="none" d="M 6.4803921568627 100 L 48.743819266837 96 L 62.831628303495 107 L 76.919437340153 94 L 91.007246376812 96 L 105.09505541347 112 L 147.35848252344 99 L 161.4462915601 99 L 175.53410059676 98 L 189.62190963342 116 L 203.70971867008 125 L 245.97314578005 113 L 260.06095481671 108 L 274.14876385337 123 L 288.23657289003 125 L 302.32438192668 145 L 344.58780903666 132 L 358.67561807332 140 L 372.76342710997 133 L 386.85123614663 156 L 400.93904518329 176 L 443.20247229327 183 L 457.29028132992 148 L 471.37809036658 136 L 485.46589940324 135 L 499.5537084399 135 L 541.81713554987 130 L 555.90494458653 129 L 569.99275362319 101 L 584.08056265985 93 L 598.1683716965 90 L 640.43179880648 77 L 654.51960784314 57" class="highcharts-graph" data-z-index="1" stroke="#73a22a" stroke-width="3" stroke-linejoin="round" stroke-linecap="round" filter="none"></path><path fill="none" d="M 6.4803921568627 100 L 48.743819266837 96 L 62.831628303495 107 L 76.919437340153 94 L 91.007246376812 96 L 105.09505541347 112 L 147.35848252344 99 L 161.4462915601 99 L 175.53410059676 98 L 189.62190963342 116 L 203.70971867008 125 L 245.97314578005 113 L 260.06095481671 108 L 274.14876385337 123 L 288.23657289003 125 L 302.32438192668 145 L 344.58780903666 132 L 358.67561807332 140 L 372.76342710997 133 L 386.85123614663 156 L 400.93904518329 176 L 443.20247229327 183 L 457.29028132992 148 L 471.37809036658 136 L 485.46589940324 135 L 499.5537084399 135 L 541.81713554987 130 L 555.90494458653 129 L 569.99275362319 101 L 584.08056265985 93 L 598.1683716965 90 L 640.43179880648 77 L 654.51960784314 57" data-z-index="2" class="highcharts-tracker-line" stroke-linecap="round" stroke-linejoin="round" stroke="rgba(192,192,192,0.0001)" stroke-width="23"></path></g><g class="highcharts-markers highcharts-series-0 highcharts-line-series highcharts-color-0 highcharts-tracker" data-z-index="0.1" opacity="1" transform="translate(70,60) scale(1 1)" clip-path="none" aria-hidden="false" role="region" tabindex="-1" aria-label="Nasdaq, line 1 of 2 with 33 data points." style="outline: none;"><path fill="#73a22a" d="M 6.5 104 A 4 4 0 1 1 6.500199999999918 103.999999995 Z" stroke="#ffffff" stroke-width="0" opacity="0" class="highcharts-point highcharts-color-0" tabindex="-1" role="img" aria-label="Friday, Feb 27, 2026, 100. Nasdaq." style="outline: none;"></path><path fill="#73a22a" d="M 48.5 100 A 4 4 0 1 1 48.500199999999914 99.999999995 Z" stroke="#ffffff" stroke-width="0" opacity="0" class="highcharts-point highcharts-color-0" tabindex="-1" role="img" aria-label="Monday, Mar 2, 2026, 100.4. Nasdaq." style="outline: none;"></path><path fill="#73a22a" d="M 62.5 111 A 4 4 0 1 1 62.500199999999914 110.999999995 Z" stroke="#ffffff" stroke-width="0" opacity="0" class="highcharts-point highcharts-color-0" tabindex="-1" role="img" aria-label="Tuesday, Mar 3, 2026, 99.3. Nasdaq." style="outline: none;"></path><path fill="#73a22a" d="M 76.5 98 A 4 4 0 1 1 76.50019999999992 97.999999995 Z" stroke="#ffffff" stroke-width="0" opacity="0" class="highcharts-point highcharts-color-0" tabindex="-1" role="img" aria-label="Wednesday, Mar 4, 2026, 100.6. Nasdaq." style="outline: none;"></path><path fill="#73a22a" d="M 91.5 100 A 4 4 0 1 1 91.50019999999992 99.999999995 Z" stroke="#ffffff" stroke-width="0" opacity="0" class="highcharts-point highcharts-color-0" tabindex="-1" role="img" aria-label="Thursday, Mar 5, 2026, 100.4. Nasdaq." style="outline: none;"></path><path fill="#73a22a" d="M 105.5 116 A 4 4 0 1 1 105.50019999999992 115.999999995 Z" stroke="#ffffff" stroke-width="0" opacity="0" class="highcharts-point highcharts-color-0" tabindex="-1" role="img" aria-label="Friday, Mar 6, 2026, 98.8. Nasdaq." style="outline: none;"></path><path fill="#73a22a" d="M 147.5 103 A 4 4 0 1 1 147.50019999999992 102.999999995 Z" stroke="#ffffff" stroke-width="0" opacity="0" class="highcharts-point highcharts-color-0" tabindex="-1" role="img" aria-label="Monday, Mar 9, 2026, 100.1. Nasdaq." style="outline: none;"></path><path fill="#73a22a" d="M 161.5 103 A 4 4 0 1 1 161.50019999999992 102.999999995 Z" stroke="#ffffff" stroke-width="0" opacity="0" class="highcharts-point highcharts-color-0" tabindex="-1" role="img" aria-label="Tuesday, Mar 10, 2026, 100.1. Nasdaq." style="outline: none;"></path><path fill="#73a22a" d="M 175.5 102 A 4 4 0 1 1 175.50019999999992 101.999999995 Z" stroke="#ffffff" stroke-width="0" opacity="0" class="highcharts-point highcharts-color-0" tabindex="-1" role="img" aria-label="Wednesday, Mar 11, 2026, 100.2. Nasdaq." style="outline: none;"></path><path fill="#73a22a" d="M 189.5 120 A 4 4 0 1 1 189.50019999999992 119.999999995 Z" stroke="#ffffff" stroke-width="0" opacity="0" class="highcharts-point highcharts-color-0" tabindex="-1" role="img" aria-label="Thursday, Mar 12, 2026, 98.4. Nasdaq." style="outline: none;"></path><path fill="#73a22a" d="M 203.5 129 A 4 4 0 1 1 203.50019999999992 128.999999995 Z" stroke="#ffffff" stroke-width="0" opacity="0" class="highcharts-point highcharts-color-0" tabindex="-1" role="img" aria-label="Friday, Mar 13, 2026, 97.5. Nasdaq." style="outline: none;"></path><path fill="#73a22a" d="M 245.5 117 A 4 4 0 1 1 245.50019999999992 116.999999995 Z" stroke="#ffffff" stroke-width="0" opacity="0" class="highcharts-point highcharts-color-0" tabindex="-1" role="img" aria-label="Monday, Mar 16, 2026, 98.7. Nasdaq." style="outline: none;"></path><path fill="#73a22a" d="M 260.5 112 A 4 4 0 1 1 260.5001999999999 111.999999995 Z" stroke="#ffffff" stroke-width="0" opacity="0" class="highcharts-point highcharts-color-0" tabindex="-1" role="img" aria-label="Tuesday, Mar 17, 2026, 99.2. Nasdaq." style="outline: none;"></path><path fill="#73a22a" d="M 274.5 127 A 4 4 0 1 1 274.5001999999999 126.999999995 Z" stroke="#ffffff" stroke-width="0" opacity="0" class="highcharts-point highcharts-color-0" tabindex="-1" role="img" aria-label="Wednesday, Mar 18, 2026, 97.7. Nasdaq." style="outline: none;"></path><path fill="#73a22a" d="M 288.5 129 A 4 4 0 1 1 288.5001999999999 128.999999995 Z" stroke="#ffffff" stroke-width="0" opacity="0" class="highcharts-point highcharts-color-0" tabindex="-1" role="img" aria-label="Thursday, Mar 19, 2026, 97.5. Nasdaq." style="outline: none;"></path><path fill="#73a22a" d="M 302.5 149 A 4 4 0 1 1 302.5001999999999 148.999999995 Z" stroke="#ffffff" stroke-width="0" opacity="0" class="highcharts-point highcharts-color-0" tabindex="-1" role="img" aria-label="Friday, Mar 20, 2026, 95.5. Nasdaq." style="outline: none;"></path><path fill="#73a22a" d="M 344.5 136 A 4 4 0 1 1 344.5001999999999 135.999999995 Z" stroke="#ffffff" stroke-width="0" opacity="0" class="highcharts-point highcharts-color-0" tabindex="-1" role="img" aria-label="Monday, Mar 23, 2026, 96.8. Nasdaq." style="outline: none;"></path><path fill="#73a22a" d="M 358.5 144 A 4 4 0 1 1 358.5001999999999 143.999999995 Z" stroke="#ffffff" stroke-width="0" opacity="0" class="highcharts-point highcharts-color-0" tabindex="-1" role="img" aria-label="Tuesday, Mar 24, 2026, 96. Nasdaq." style="outline: none;"></path><path fill="#73a22a" d="M 372.5 137 A 4 4 0 1 1 372.5001999999999 136.999999995 Z" stroke="#ffffff" stroke-width="0" opacity="0" class="highcharts-point highcharts-color-0" tabindex="-1" role="img" aria-label="Wednesday, Mar 25, 2026, 96.7. Nasdaq." style="outline: none;"></path><path fill="#73a22a" d="M 386.5 160 A 4 4 0 1 1 386.5001999999999 159.999999995 Z" stroke="#ffffff" stroke-width="0" opacity="0" class="highcharts-point highcharts-color-0" tabindex="-1" role="img" aria-label="Thursday, Mar 26, 2026, 94.4. Nasdaq." style="outline: none;"></path><path fill="#73a22a" d="M 400.5 180 A 4 4 0 1 1 400.5001999999999 179.999999995 Z" stroke="#ffffff" stroke-width="0" opacity="0" class="highcharts-point highcharts-color-0" tabindex="-1" role="img" aria-label="Friday, Mar 27, 2026, 92.4. Nasdaq." style="outline: none;"></path><path fill="#73a22a" d="M 443.5 187 A 4 4 0 1 1 443.5001999999999 186.999999995 Z" stroke="#ffffff" stroke-width="0" opacity="0" class="highcharts-point highcharts-color-0" tabindex="-1" role="img" aria-label="Monday, Mar 30, 2026, 91.7. Nasdaq." style="outline: none;"></path><path fill="#73a22a" d="M 457.5 152 A 4 4 0 1 1 457.5001999999999 151.999999995 Z" stroke="#ffffff" stroke-width="0" opacity="0" class="highcharts-point highcharts-color-0" tabindex="-1" role="img" aria-label="Tuesday, Mar 31, 2026, 95.2. Nasdaq." style="outline: none;"></path><path fill="#73a22a" d="M 471.5 140 A 4 4 0 1 1 471.5001999999999 139.999999995 Z" stroke="#ffffff" stroke-width="0" opacity="0" class="highcharts-point highcharts-color-0" tabindex="-1" role="img" aria-label="Wednesday, Apr 1, 2026, 96.4. Nasdaq." style="outline: none;"></path><path fill="#73a22a" d="M 485.5 139 A 4 4 0 1 1 485.5001999999999 138.999999995 Z" stroke="#ffffff" stroke-width="0" opacity="0" class="highcharts-point highcharts-color-0" tabindex="-1" role="img" aria-label="Thursday, Apr 2, 2026, 96.5. Nasdaq." style="outline: none;"></path><path fill="#73a22a" d="M 499.5 139 A 4 4 0 1 1 499.5001999999999 138.999999995 Z" stroke="#ffffff" stroke-width="0" opacity="0" class="highcharts-point highcharts-color-0" tabindex="-1" role="img" aria-label="Friday, Apr 3, 2026, 96.5. Nasdaq." style="outline: none;"></path><path fill="#73a22a" d="M 541.5 134 A 4 4 0 1 1 541.5002 133.999999995 Z" stroke="#ffffff" stroke-width="0" opacity="0" class="highcharts-point highcharts-color-0" tabindex="-1" role="img" aria-label="Monday, Apr 6, 2026, 97. Nasdaq." style="outline: none;"></path><path fill="#73a22a" d="M 555.5 133 A 4 4 0 1 1 555.5002 132.999999995 Z" stroke="#ffffff" stroke-width="0" opacity="0" class="highcharts-point highcharts-color-0" tabindex="-1" role="img" aria-label="Tuesday, Apr 7, 2026, 97.1. Nasdaq." style="outline: none;"></path><path fill="#73a22a" d="M 569.5 105 A 4 4 0 1 1 569.5002 104.999999995 Z" stroke="#ffffff" stroke-width="0" opacity="0" class="highcharts-point highcharts-color-0" tabindex="-1" role="img" aria-label="Wednesday, Apr 8, 2026, 99.9. Nasdaq." style="outline: none;"></path><path fill="#73a22a" d="M 584.5 97 A 4 4 0 1 1 584.5002 96.999999995 Z" stroke="#ffffff" stroke-width="0" opacity="0" class="highcharts-point highcharts-color-0" tabindex="-1" role="img" aria-label="Thursday, Apr 9, 2026, 100.7. Nasdaq." style="outline: none;"></path><path fill="#73a22a" d="M 598.5 94 A 4 4 0 1 1 598.5002 93.999999995 Z" stroke="#ffffff" stroke-width="0" opacity="0" class="highcharts-point highcharts-color-0" tabindex="-1" role="img" aria-label="Friday, Apr 10, 2026, 101. Nasdaq." style="outline: none;"></path><path fill="#73a22a" d="M 640.5 81 A 4 4 0 1 1 640.5002 80.999999995 Z" stroke="#ffffff" stroke-width="0" opacity="0" class="highcharts-point highcharts-color-0" tabindex="-1" role="img" aria-label="Monday, Apr 13, 2026, 102.3. Nasdaq." style="outline: none;"></path><path fill="#73a22a" d="M 654.5 61 A 4 4 0 1 1 654.5002 60.999999995 Z" stroke="#ffffff" stroke-width="0" opacity="0" class="highcharts-point highcharts-color-0" tabindex="-1" role="img" aria-label="Tuesday, Apr 14, 2026, 104.3. Nasdaq." style="outline: none;"></path></g><g class="highcharts-series highcharts-series-1 highcharts-line-series highcharts-color-1" data-z-index="0.1" opacity="1" transform="translate(70,60) scale(1 1)" clip-path="url(#highcharts-tdtbwsm-312-)" aria-hidden="true"><path fill="none" d="M 6.4803921568627 100 L 48.743819266837 126 L 62.831628303495 159 L 76.919437340153 143 L 91.007246376812 158 L 105.09505541347 167 L 147.35848252344 174 L 161.4462915601 152 L 175.53410059676 165 L 189.62190963342 167 L 203.70971867008 173 L 245.97314578005 168 L 260.06095481671 161 L 274.14876385337 170 L 288.23657289003 197 L 302.32438192668 215 L 344.58780903666 204 L 358.67561807332 205 L 372.76342710997 192 L 386.85123614663 206 L 400.93904518329 218 L 443.20247229327 208 L 457.29028132992 203 L 471.37809036658 179 L 485.46589940324 184 L 499.5537084399 184 L 541.81713554987 184 L 555.90494458653 193 L 569.99275362319 148 L 584.08056265985 158 L 598.1683716965 159 L 640.43179880648 161 L 654.51960784314 149" class="highcharts-graph" data-z-index="1" stroke="#489cd2" stroke-width="3" stroke-linejoin="round" stroke-linecap="round" filter="none"></path><path fill="none" d="M 6.4803921568627 100 L 48.743819266837 126 L 62.831628303495 159 L 76.919437340153 143 L 91.007246376812 158 L 105.09505541347 167 L 147.35848252344 174 L 161.4462915601 152 L 175.53410059676 165 L 189.62190963342 167 L 203.70971867008 173 L 245.97314578005 168 L 260.06095481671 161 L 274.14876385337 170 L 288.23657289003 197 L 302.32438192668 215 L 344.58780903666 204 L 358.67561807332 205 L 372.76342710997 192 L 386.85123614663 206 L 400.93904518329 218 L 443.20247229327 208 L 457.29028132992 203 L 471.37809036658 179 L 485.46589940324 184 L 499.5537084399 184 L 541.81713554987 184 L 555.90494458653 193 L 569.99275362319 148 L 584.08056265985 158 L 598.1683716965 159 L 640.43179880648 161 L 654.51960784314 149" data-z-index="2" class="highcharts-tracker-line" stroke-linecap="round" stroke-linejoin="round" stroke="rgba(192,192,192,0.0001)" stroke-width="23"></path></g><g class="highcharts-markers highcharts-series-1 highcharts-line-series highcharts-color-1 highcharts-tracker" data-z-index="0.1" opacity="1" transform="translate(70,60) scale(1 1)" clip-path="none" aria-hidden="false" role="region" tabindex="-1" aria-label="Dax, line 2 of 2 with 33 data points." style="outline: none;"><path fill="#489cd2" d="M 6.5 96 L 10.5 100 L 6.5 104 L 2.5 100 Z" stroke="#ffffff" stroke-width="0" opacity="0" class="highcharts-point highcharts-color-1" tabindex="-1" role="img" aria-label="Friday, Feb 27, 2026, 100. Dax." style="outline: none;"></path><path fill="#489cd2" d="M 48.5 122 L 52.5 126 L 48.5 130 L 44.5 126 Z" stroke="#ffffff" stroke-width="0" opacity="0" class="highcharts-point highcharts-color-1" tabindex="-1" role="img" aria-label="Monday, Mar 2, 2026, 97.4. Dax." style="outline: none;"></path><path fill="#489cd2" d="M 62.5 155 L 66.5 159 L 62.5 163 L 58.5 159 Z" stroke="#ffffff" stroke-width="0" opacity="0" class="highcharts-point highcharts-color-1" tabindex="-1" role="img" aria-label="Tuesday, Mar 3, 2026, 94.1. Dax." style="outline: none;"></path><path fill="#489cd2" d="M 76.5 139 L 80.5 143 L 76.5 147 L 72.5 143 Z" stroke="#ffffff" stroke-width="0" opacity="0" class="highcharts-point highcharts-color-1" tabindex="-1" role="img" aria-label="Wednesday, Mar 4, 2026, 95.7. Dax." style="outline: none;"></path><path fill="#489cd2" d="M 91.5 154 L 95.5 158 L 91.5 162 L 87.5 158 Z" stroke="#ffffff" stroke-width="0" opacity="0" class="highcharts-point highcharts-color-1" tabindex="-1" role="img" aria-label="Thursday, Mar 5, 2026, 94.2. Dax." style="outline: none;"></path><path fill="#489cd2" d="M 105.5 163 L 109.5 167 L 105.5 171 L 101.5 167 Z" stroke="#ffffff" stroke-width="0" opacity="0" class="highcharts-point highcharts-color-1" tabindex="-1" role="img" aria-label="Friday, Mar 6, 2026, 93.3. Dax." style="outline: none;"></path><path fill="#489cd2" d="M 147.5 170 L 151.5 174 L 147.5 178 L 143.5 174 Z" stroke="#ffffff" stroke-width="0" opacity="0" class="highcharts-point highcharts-color-1" tabindex="-1" role="img" aria-label="Monday, Mar 9, 2026, 92.6. Dax." style="outline: none;"></path><path fill="#489cd2" d="M 161.5 148 L 165.5 152 L 161.5 156 L 157.5 152 Z" stroke="#ffffff" stroke-width="0" opacity="0" class="highcharts-point highcharts-color-1" tabindex="-1" role="img" aria-label="Tuesday, Mar 10, 2026, 94.8. Dax." style="outline: none;"></path><path fill="#489cd2" d="M 175.5 161 L 179.5 165 L 175.5 169 L 171.5 165 Z" stroke="#ffffff" stroke-width="0" opacity="0" class="highcharts-point highcharts-color-1" tabindex="-1" role="img" aria-label="Wednesday, Mar 11, 2026, 93.5. Dax." style="outline: none;"></path><path fill="#489cd2" d="M 189.5 163 L 193.5 167 L 189.5 171 L 185.5 167 Z" stroke="#ffffff" stroke-width="0" opacity="0" class="highcharts-point highcharts-color-1" tabindex="-1" role="img" aria-label="Thursday, Mar 12, 2026, 93.3. Dax." style="outline: none;"></path><path fill="#489cd2" d="M 203.5 169 L 207.5 173 L 203.5 177 L 199.5 173 Z" stroke="#ffffff" stroke-width="0" opacity="0" class="highcharts-point highcharts-color-1" tabindex="-1" role="img" aria-label="Friday, Mar 13, 2026, 92.7. Dax." style="outline: none;"></path><path fill="#489cd2" d="M 245.5 164 L 249.5 168 L 245.5 172 L 241.5 168 Z" stroke="#ffffff" stroke-width="0" opacity="0" class="highcharts-point highcharts-color-1" tabindex="-1" role="img" aria-label="Monday, Mar 16, 2026, 93.2. Dax." style="outline: none;"></path><path fill="#489cd2" d="M 260.5 157 L 264.5 161 L 260.5 165 L 256.5 161 Z" stroke="#ffffff" stroke-width="0" opacity="0" class="highcharts-point highcharts-color-1" tabindex="-1" role="img" aria-label="Tuesday, Mar 17, 2026, 93.9. Dax." style="outline: none;"></path><path fill="#489cd2" d="M 274.5 166 L 278.5 170 L 274.5 174 L 270.5 170 Z" stroke="#ffffff" stroke-width="0" opacity="0" class="highcharts-point highcharts-color-1" tabindex="-1" role="img" aria-label="Wednesday, Mar 18, 2026, 93. Dax." style="outline: none;"></path><path fill="#489cd2" d="M 288.5 193 L 292.5 197 L 288.5 201 L 284.5 197 Z" stroke="#ffffff" stroke-width="0" opacity="0" class="highcharts-point highcharts-color-1" tabindex="-1" role="img" aria-label="Thursday, Mar 19, 2026, 90.3. Dax." style="outline: none;"></path><path fill="#489cd2" d="M 302.5 211 L 306.5 215 L 302.5 219 L 298.5 215 Z" stroke="#ffffff" stroke-width="0" opacity="0" class="highcharts-point highcharts-color-1" tabindex="-1" role="img" aria-label="Friday, Mar 20, 2026, 88.5. Dax." style="outline: none;"></path><path fill="#489cd2" d="M 344.5 200 L 348.5 204 L 344.5 208 L 340.5 204 Z" stroke="#ffffff" stroke-width="0" opacity="0" class="highcharts-point highcharts-color-1" tabindex="-1" role="img" aria-label="Monday, Mar 23, 2026, 89.6. Dax." style="outline: none;"></path><path fill="#489cd2" d="M 358.5 201 L 362.5 205 L 358.5 209 L 354.5 205 Z" stroke="#ffffff" stroke-width="0" opacity="0" class="highcharts-point highcharts-color-1" tabindex="-1" role="img" aria-label="Tuesday, Mar 24, 2026, 89.5. Dax." style="outline: none;"></path><path fill="#489cd2" d="M 372.5 188 L 376.5 192 L 372.5 196 L 368.5 192 Z" stroke="#ffffff" stroke-width="0" opacity="0" class="highcharts-point highcharts-color-1" tabindex="-1" role="img" aria-label="Wednesday, Mar 25, 2026, 90.8. Dax." style="outline: none;"></path><path fill="#489cd2" d="M 386.5 202 L 390.5 206 L 386.5 210 L 382.5 206 Z" stroke="#ffffff" stroke-width="0" opacity="0" class="highcharts-point highcharts-color-1" tabindex="-1" role="img" aria-label="Thursday, Mar 26, 2026, 89.4. Dax." style="outline: none;"></path><path fill="#489cd2" d="M 400.5 214 L 404.5 218 L 400.5 222 L 396.5 218 Z" stroke="#ffffff" stroke-width="0" opacity="0" class="highcharts-point highcharts-color-1" tabindex="-1" role="img" aria-label="Friday, Mar 27, 2026, 88.2. Dax." style="outline: none;"></path><path fill="#489cd2" d="M 443.5 204 L 447.5 208 L 443.5 212 L 439.5 208 Z" stroke="#ffffff" stroke-width="0" opacity="0" class="highcharts-point highcharts-color-1" tabindex="-1" role="img" aria-label="Monday, Mar 30, 2026, 89.2. Dax." style="outline: none;"></path><path fill="#489cd2" d="M 457.5 199 L 461.5 203 L 457.5 207 L 453.5 203 Z" stroke="#ffffff" stroke-width="0" opacity="0" class="highcharts-point highcharts-color-1" tabindex="-1" role="img" aria-label="Tuesday, Mar 31, 2026, 89.7. Dax." style="outline: none;"></path><path fill="#489cd2" d="M 471.5 175 L 475.5 179 L 471.5 183 L 467.5 179 Z" stroke="#ffffff" stroke-width="0" opacity="0" class="highcharts-point highcharts-color-1" tabindex="-1" role="img" aria-label="Wednesday, Apr 1, 2026, 92.1. Dax." style="outline: none;"></path><path fill="#489cd2" d="M 485.5 180 L 489.5 184 L 485.5 188 L 481.5 184 Z" stroke="#ffffff" stroke-width="0" opacity="0" class="highcharts-point highcharts-color-1" tabindex="-1" role="img" aria-label="Thursday, Apr 2, 2026, 91.6. Dax." style="outline: none;"></path><path fill="#489cd2" d="M 499.5 180 L 503.5 184 L 499.5 188 L 495.5 184 Z" stroke="#ffffff" stroke-width="0" opacity="0" class="highcharts-point highcharts-color-1" tabindex="-1" role="img" aria-label="Friday, Apr 3, 2026, 91.6. Dax." style="outline: none;"></path><path fill="#489cd2" d="M 541.5 180 L 545.5 184 L 541.5 188 L 537.5 184 Z" stroke="#ffffff" stroke-width="0" opacity="0" class="highcharts-point highcharts-color-1" tabindex="-1" role="img" aria-label="Monday, Apr 6, 2026, 91.6. Dax." style="outline: none;"></path><path fill="#489cd2" d="M 555.5 189 L 559.5 193 L 555.5 197 L 551.5 193 Z" stroke="#ffffff" stroke-width="0" opacity="0" class="highcharts-point highcharts-color-1" tabindex="-1" role="img" aria-label="Tuesday, Apr 7, 2026, 90.7. Dax." style="outline: none;"></path><path fill="#489cd2" d="M 569.5 144 L 573.5 148 L 569.5 152 L 565.5 148 Z" stroke="#ffffff" stroke-width="0" opacity="0" class="highcharts-point highcharts-color-1" tabindex="-1" role="img" aria-label="Wednesday, Apr 8, 2026, 95.2. Dax." style="outline: none;"></path><path fill="#489cd2" d="M 584.5 154 L 588.5 158 L 584.5 162 L 580.5 158 Z" stroke="#ffffff" stroke-width="0" opacity="0" class="highcharts-point highcharts-color-1" tabindex="-1" role="img" aria-label="Thursday, Apr 9, 2026, 94.2. Dax." style="outline: none;"></path><path fill="#489cd2" d="M 598.5 155 L 602.5 159 L 598.5 163 L 594.5 159 Z" stroke="#ffffff" stroke-width="0" opacity="0" class="highcharts-point highcharts-color-1" tabindex="-1" role="img" aria-label="Friday, Apr 10, 2026, 94.1. Dax." style="outline: none;"></path><path fill="#489cd2" d="M 640.5 157 L 644.5 161 L 640.5 165 L 636.5 161 Z" stroke="#ffffff" stroke-width="0" opacity="0" class="highcharts-point highcharts-color-1" tabindex="-1" role="img" aria-label="Monday, Apr 13, 2026, 93.9. Dax." style="outline: none;"></path><path fill="#489cd2" d="M 654.5 145 L 658.5 149 L 654.5 153 L 650.5 149 Z" stroke="#ffffff" stroke-width="0" opacity="0" class="highcharts-point highcharts-color-1" tabindex="-1" role="img" aria-label="Tuesday, Apr 14, 2026, 95.1. Dax." style="outline: none;"></path></g></g><g class="highcharts-exporting-group" data-z-index="3" aria-hidden="true"><g class="highcharts-no-tooltip highcharts-button highcharts-contextbutton" stroke-linecap="round" style="cursor: pointer;" transform="translate(703,5)"><title>Chart context menu</title><rect fill="#ffffff" class="highcharts-button-box" x="0.5" y="0.5" width="28" height="28" rx="2" ry="2" stroke="none" stroke-width="1"></rect><path fill="#666666" d="M 8 9.5 L 22 9.5 M 8 14.5 L 22 14.5 M 8 19.5 L 22 19.5" class="highcharts-button-symbol" data-z-index="1" stroke="#666666" stroke-width="3"></path><text x="28" data-z-index="1" y="18.5" text-anchor="end" style="font-size: 0.8em; font-weight: normal; fill: rgb(51, 51, 51);"></text></g></g><g class="highcharts-datalabels-group" data-z-index="6" aria-hidden="true"></g><g class="highcharts-legend highcharts-no-tooltip" data-z-index="7" text-align="left" transform="translate(10,372)" aria-hidden="true"><rect fill="none" class="highcharts-legend-box" rx="0" ry="0" stroke="#999999" stroke-width="0" filter="none" x="0" y="0" width="138" height="38"></rect><g data-z-index="1"><g><g class="highcharts-legend-item highcharts-line-series highcharts-color-0 highcharts-series-0" data-z-index="1" transform="translate(8,3)"><path fill="none" class="highcharts-graph" stroke-width="3" stroke-linecap="round" d="M 1.5 13 L 14.5 13" stroke="#73a22a"></path><text x="21" text-anchor="start" data-z-index="2" style="cursor: pointer; font-size: 0.8em; text-decoration: none; fill: rgb(51, 51, 51);" y="17">Nasdaq</text></g><g class="highcharts-legend-item highcharts-line-series highcharts-color-1 highcharts-series-1" data-z-index="1" transform="translate(87.390625,3)"><path fill="none" class="highcharts-graph" stroke-width="3" stroke-linecap="round" d="M 1.5 13 L 14.5 13" stroke="#489cd2"></path><text x="21" y="17" text-anchor="start" data-z-index="2" style="cursor: pointer; font-size: 0.8em; text-decoration: none; fill: rgb(51, 51, 51);">Dax</text></g></g></g></g><g class="highcharts-axis-labels highcharts-xaxis-labels" data-z-index="7" aria-hidden="true"><text x="118.74381926684" text-anchor="middle" transform="translate(0,0)" style="cursor: default; font-size: 0.8em; fill: rgb(90, 109, 120);" y="337" opacity="1">02-03-2026</text><text x="217.35848252344" text-anchor="middle" transform="translate(0,0)" style="cursor: default; font-size: 0.8em; fill: rgb(90, 109, 120);" y="337" opacity="1">09-03-2026</text><text x="315.97314578005" text-anchor="middle" transform="translate(0,0)" style="cursor: default; font-size: 0.8em; fill: rgb(90, 109, 120);" y="337" opacity="1">16-03-2026</text><text x="414.58780903666" text-anchor="middle" transform="translate(0,0)" style="cursor: default; font-size: 0.8em; fill: rgb(90, 109, 120);" y="337" opacity="1">23-03-2026</text><text x="513.20247229327" text-anchor="middle" transform="translate(0,0)" style="cursor: default; font-size: 0.8em; fill: rgb(90, 109, 120);" y="337" opacity="1">30-03-2026</text><text x="611.81713554987" text-anchor="middle" transform="translate(0,0)" style="cursor: default; font-size: 0.8em; fill: rgb(90, 109, 120);" y="337" opacity="1">06-04-2026</text><text x="701.140625" text-anchor="middle" transform="translate(0,0)" style="cursor: default; font-size: 0.8em; fill: rgb(90, 109, 120);" y="337" opacity="1">13-04-2026</text></g><g class="highcharts-axis-labels highcharts-yaxis-labels" data-z-index="7" aria-hidden="true"><text x="55" text-anchor="end" transform="translate(0,0)" style="cursor: default; font-size: 0.8em; fill: rgb(90, 109, 120);" y="315" opacity="1">85</text><text x="55" text-anchor="end" transform="translate(0,0)" style="cursor: default; font-size: 0.8em; fill: rgb(90, 109, 120);" y="265" opacity="1">90</text><text x="55" text-anchor="end" transform="translate(0,0)" style="cursor: default; font-size: 0.8em; fill: rgb(90, 109, 120);" y="215" opacity="1">95</text><text x="55" text-anchor="end" transform="translate(0,0)" style="cursor: default; font-size: 0.8em; fill: rgb(90, 109, 120);" y="165" opacity="1">100</text><text x="55" text-anchor="end" transform="translate(0,0)" style="cursor: default; font-size: 0.8em; fill: rgb(90, 109, 120);" y="115" opacity="1">105</text><text x="55" text-anchor="end" transform="translate(0,0)" style="cursor: default; font-size: 0.8em; fill: rgb(90, 109, 120);" y="65" opacity="1">110</text></g><text x="731" class="highcharts-credits" text-anchor="end" data-z-index="8" text-align="right" y="420" style="cursor: pointer; font-size: 0.6em; fill: rgb(90, 109, 120);" aria-label="Chart credits: " aria-hidden="false"></text><g class="highcharts-control-points" data-z-index="99" clip-path="url(#highcharts-tdtbwsm-348-)" aria-hidden="true"></g></svg>