<svg version="1.1" class="highcharts-root" style="font-family: DwsSlab; font-size: 1rem;" xmlns="http://www.w3.org/2000/svg" width="773" height="425" viewBox="0 0 773 425" aria-hidden="false" aria-label="Interactive chart"><desc aria-hidden="true">Created with Highcharts 12.4.0</desc><defs aria-hidden="true"><filter id="highcharts-drop-shadow-0"><feDropShadow dx="1" dy="1" flood-color="#000000" flood-opacity="0.75" stdDeviation="2.5"></feDropShadow></filter><clipPath id="highcharts-7wgd5ae-64-"><rect x="1" y="0" width="665" height="246" fill="none"></rect></clipPath><clipPath id="highcharts-7wgd5ae-67-"><rect x="98" y="64" width="665" height="246" fill="none"></rect></clipPath></defs><rect fill="#ffffff" class="highcharts-background" filter="none" x="0" y="0" width="773" height="425" rx="0" ry="0" aria-hidden="true"></rect><rect fill="none" class="highcharts-plot-background" x="98" y="64" width="665" height="246" filter="none" aria-hidden="true"></rect><g class="highcharts-pane-group" data-z-index="0" aria-hidden="true"></g><g class="highcharts-grid highcharts-xaxis-grid" data-z-index="1" aria-hidden="true"><path fill="none" stroke="#ebeef0" stroke-width="0" stroke-dasharray="none" data-z-index="1" class="highcharts-grid-line" d="M 148.5 64 L 148.5 310" opacity="1"></path><path fill="none" stroke="#ebeef0" stroke-width="0" stroke-dasharray="none" data-z-index="1" class="highcharts-grid-line" d="M 259.5 64 L 259.5 310" opacity="1"></path><path fill="none" stroke="#ebeef0" stroke-width="0" stroke-dasharray="none" data-z-index="1" class="highcharts-grid-line" d="M 369.5 64 L 369.5 310" opacity="1"></path><path fill="none" stroke="#ebeef0" stroke-width="0" stroke-dasharray="none" data-z-index="1" class="highcharts-grid-line" d="M 480.5 64 L 480.5 310" opacity="1"></path><path fill="none" stroke="#ebeef0" stroke-width="0" stroke-dasharray="none" data-z-index="1" class="highcharts-grid-line" d="M 590.5 64 L 590.5 310" opacity="1"></path><path fill="none" stroke="#ebeef0" stroke-width="0" stroke-dasharray="none" data-z-index="1" class="highcharts-grid-line" d="M 701.5 64 L 701.5 310" opacity="1"></path></g><g class="highcharts-grid highcharts-yaxis-grid" data-z-index="1" aria-hidden="true"><path fill="none" stroke="#ebeef0" stroke-width="1" stroke-dasharray="none" data-z-index="1" class="highcharts-grid-line" d="M 98 310.5 L 763 310.5" opacity="1"></path><path fill="none" stroke="#ebeef0" stroke-width="1" stroke-dasharray="none" data-z-index="1" class="highcharts-grid-line" d="M 98 274.5 L 763 274.5" opacity="1"></path><path fill="none" stroke="#ebeef0" stroke-width="1" stroke-dasharray="none" data-z-index="1" class="highcharts-grid-line" d="M 98 239.5 L 763 239.5" opacity="1"></path><path fill="none" stroke="#ebeef0" stroke-width="1" stroke-dasharray="none" data-z-index="1" class="highcharts-grid-line" d="M 98 204.5 L 763 204.5" opacity="1"></path><path fill="none" stroke="#ebeef0" stroke-width="1" stroke-dasharray="none" data-z-index="1" class="highcharts-grid-line" d="M 98 169.5 L 763 169.5" opacity="1"></path><path fill="none" stroke="#ebeef0" stroke-width="1" stroke-dasharray="none" data-z-index="1" class="highcharts-grid-line" d="M 98 134.5 L 763 134.5" opacity="1"></path><path fill="none" stroke="#ebeef0" stroke-width="1" stroke-dasharray="none" data-z-index="1" class="highcharts-grid-line" d="M 98 99.5 L 763 99.5" opacity="1"></path><path fill="none" stroke="#ebeef0" stroke-width="1" stroke-dasharray="none" data-z-index="1" class="highcharts-grid-line" d="M 98 64.5 L 763 64.5" opacity="1"></path></g><rect fill="none" class="highcharts-plot-border" data-z-index="1" stroke="#cccccc" stroke-width="0" x="98" y="64" width="665" height="246" aria-hidden="true"></rect><g class="highcharts-axis highcharts-xaxis" data-z-index="2" aria-hidden="true"><path fill="none" class="highcharts-axis-line" stroke="#ebeef0" stroke-width="1" data-z-index="7" d="M 98 310.5 L 763 310.5"></path></g><g class="highcharts-axis highcharts-yaxis" data-z-index="2" aria-hidden="true"><path fill="none" class="highcharts-axis-line" stroke="#ebeef0" stroke-width="1" data-z-index="7" d="M 98.5 64 L 98.5 310"></path></g><g class="highcharts-series-group" data-z-index="3" filter="none" aria-hidden="false"><g class="highcharts-series highcharts-series-0 highcharts-line-series highcharts-color-0" data-z-index="0.1" opacity="1" transform="translate(98,64) scale(1 1)" clip-path="url(#highcharts-7wgd5ae-64-)" aria-hidden="true"><path fill="none" d="M 658.48039215686 217.71 L 647.40764751376 215.77714285714 L 636.36515627133 214.19571428571 L 625.32266502889 212.96571428571 L 614.28017378645 214.89857142857 L 603.20742914335 207.34285714286 L 592.16493790091 205.23428571429 L 581.12244665848 204.88285714286 L 570.07995541604 203.65285714286 L 559.00721077294 202.77428571429 L 547.9647195305 202.24714285714 L 536.92222828807 200.66571428571 L 525.87973704563 200.31428571429 L 514.80699240253 196.44857142857 L 503.76450116009 193.28571428571 L 492.72200991766 192.23142857143 L 481.67951867522 189.42 L 470.60677403212 182.74285714286 L 459.56428278968 180.10714285714 L 448.52179154725 175.89 L 437.47930030481 172.55142857143 L 426.40655566171 172.37571428571 L 415.36406441927 171.14571428571 L 404.32157317683 169.21285714286 L 393.2790819344 168.15857142857 L 382.2063372913 164.46857142857 L 371.16384604886 162.18428571429 L 360.12135480642 159.19714285714 L 349.07886356399 155.33142857143 L 338.00611892089 155.15571428571 L 326.96362767845 151.46571428571 L 315.92113643601 149.53285714286 L 304.87864519358 146.89714285714 L 293.80590055048 145.14 L 282.76340930804 142.15285714286 L 271.7209180656 136.53 L 260.67842682317 131.08285714286 L 249.60568218006 131.25857142857 L 238.56319093763 129.15 L 227.52069969519 131.08285714286 L 216.47820845275 124.05428571429 L 205.40546380965 117.72857142857 L 194.36297256722 109.29428571429 L 183.32048132478 102.61714285714 L 172.27799008234 84.694285714286 L 161.20524543924 68.352857142857 L 150.16275419681 56.228571428571 L 139.12026295437 49.024285714286 L 128.07777171193 51.308571428571 L 117.00502706883 56.052857142857 L 105.9625358264 50.781428571429 L 94.920044583959 42.347142857143 L 83.877553341522 43.05 L 72.804808698421 48.672857142857 L 61.762317455985 49.2 L 50.719826213548 58.688571428571 L 39.677334971111 62.554285714286 L 28.604590328011 66.42 L 17.562099085574 69.055714285714 L 6.5196078431373 66.068571428571" class="highcharts-graph" data-z-index="1" stroke="#73a22a" stroke-width="3" stroke-linejoin="round" stroke-linecap="round" filter="none"></path><path fill="none" d="M 658.48039215686 217.71 L 647.40764751376 215.77714285714 L 636.36515627133 214.19571428571 L 625.32266502889 212.96571428571 L 614.28017378645 214.89857142857 L 603.20742914335 207.34285714286 L 592.16493790091 205.23428571429 L 581.12244665848 204.88285714286 L 570.07995541604 203.65285714286 L 559.00721077294 202.77428571429 L 547.9647195305 202.24714285714 L 536.92222828807 200.66571428571 L 525.87973704563 200.31428571429 L 514.80699240253 196.44857142857 L 503.76450116009 193.28571428571 L 492.72200991766 192.23142857143 L 481.67951867522 189.42 L 470.60677403212 182.74285714286 L 459.56428278968 180.10714285714 L 448.52179154725 175.89 L 437.47930030481 172.55142857143 L 426.40655566171 172.37571428571 L 415.36406441927 171.14571428571 L 404.32157317683 169.21285714286 L 393.2790819344 168.15857142857 L 382.2063372913 164.46857142857 L 371.16384604886 162.18428571429 L 360.12135480642 159.19714285714 L 349.07886356399 155.33142857143 L 338.00611892089 155.15571428571 L 326.96362767845 151.46571428571 L 315.92113643601 149.53285714286 L 304.87864519358 146.89714285714 L 293.80590055048 145.14 L 282.76340930804 142.15285714286 L 271.7209180656 136.53 L 260.67842682317 131.08285714286 L 249.60568218006 131.25857142857 L 238.56319093763 129.15 L 227.52069969519 131.08285714286 L 216.47820845275 124.05428571429 L 205.40546380965 117.72857142857 L 194.36297256722 109.29428571429 L 183.32048132478 102.61714285714 L 172.27799008234 84.694285714286 L 161.20524543924 68.352857142857 L 150.16275419681 56.228571428571 L 139.12026295437 49.024285714286 L 128.07777171193 51.308571428571 L 117.00502706883 56.052857142857 L 105.9625358264 50.781428571429 L 94.920044583959 42.347142857143 L 83.877553341522 43.05 L 72.804808698421 48.672857142857 L 61.762317455985 49.2 L 50.719826213548 58.688571428571 L 39.677334971111 62.554285714286 L 28.604590328011 66.42 L 17.562099085574 69.055714285714 L 6.5196078431373 66.068571428571" data-z-index="2" class="highcharts-tracker-line" stroke-linecap="round" stroke-linejoin="round" stroke="rgba(192,192,192,0.0001)" stroke-width="23"></path></g><g class="highcharts-markers highcharts-series-0 highcharts-line-series highcharts-color-0 highcharts-tracker" data-z-index="0.1" opacity="1" transform="translate(98,64) scale(1 1)" clip-path="none" aria-hidden="false"><path fill="#73a22a" d="M 658.5 221.71 A 4 4 0 1 1 658.5002 221.709999995 Z" stroke="#ffffff" stroke-width="0" opacity="0" class="highcharts-point highcharts-color-0" tabindex="-1" role="img" aria-label="Tuesday, Dec 31, 2024, 3.61%. Oil intensity*." style="outline: none;"></path><path fill="#73a22a" d="M 647.5 219.77714285714 A 4 4 0 1 1 647.5002 219.77714285214 Z" stroke="#ffffff" stroke-width="0" opacity="0" class="highcharts-point highcharts-color-0" tabindex="-1" role="img" aria-label="Sunday, Dec 31, 2023, 3.72%. Oil intensity*." style="outline: none;"></path><path fill="#73a22a" d="M 636.5 218.19571428571 A 4 4 0 1 1 636.5002 218.19571428071 Z" stroke="#ffffff" stroke-width="0" opacity="0" class="highcharts-point highcharts-color-0" tabindex="-1" role="img" aria-label="Saturday, Dec 31, 2022, 3.81%. Oil intensity*." style="outline: none;"></path><path fill="#73a22a" d="M 625.5 216.96571428571 A 4 4 0 1 1 625.5002 216.96571428071 Z" stroke="#ffffff" stroke-width="0" opacity="0" class="highcharts-point highcharts-color-0" tabindex="-1" role="img" aria-label="Friday, Dec 31, 2021, 3.88%. Oil intensity*." style="outline: none;"></path><path fill="#73a22a" d="M 614.5 218.89857142857 A 4 4 0 1 1 614.5002 218.89857142357 Z" stroke="#ffffff" stroke-width="0" opacity="0" class="highcharts-point highcharts-color-0" tabindex="-1" role="img" aria-label="Thursday, Dec 31, 2020, 3.77%. Oil intensity*." style="outline: none;"></path><path fill="#73a22a" d="M 603.5 211.34285714286 A 4 4 0 1 1 603.5002 211.34285713786 Z" stroke="#ffffff" stroke-width="0" opacity="0" class="highcharts-point highcharts-color-0" tabindex="-1" role="img" aria-label="Tuesday, Dec 31, 2019, 4.2%. Oil intensity*." style="outline: none;"></path><path fill="#73a22a" d="M 592.5 209.23428571429 A 4 4 0 1 1 592.5002 209.23428570929 Z" stroke="#ffffff" stroke-width="0" opacity="0" class="highcharts-point highcharts-color-0" tabindex="-1" role="img" aria-label="Monday, Dec 31, 2018, 4.32%. Oil intensity*." style="outline: none;"></path><path fill="#73a22a" d="M 581.5 208.88285714286 A 4 4 0 1 1 581.5002 208.88285713786 Z" stroke="#ffffff" stroke-width="0" opacity="0" class="highcharts-point highcharts-color-0" tabindex="-1" role="img" aria-label="Sunday, Dec 31, 2017, 4.34%. Oil intensity*." style="outline: none;"></path><path fill="#73a22a" d="M 570.5 207.65285714286 A 4 4 0 1 1 570.5002 207.65285713786 Z" stroke="#ffffff" stroke-width="0" opacity="0" class="highcharts-point highcharts-color-0" tabindex="-1" role="img" aria-label="Saturday, Dec 31, 2016, 4.41%. Oil intensity*." style="outline: none;"></path><path fill="#73a22a" d="M 559.5 206.77428571429 A 4 4 0 1 1 559.5002 206.77428570928998 Z" stroke="#ffffff" stroke-width="0" opacity="0" class="highcharts-point highcharts-color-0" tabindex="-1" role="img" aria-label="Thursday, Dec 31, 2015, 4.46%. Oil intensity*." style="outline: none;"></path><path fill="#73a22a" d="M 547.5 206.24714285714 A 4 4 0 1 1 547.5002 206.24714285214 Z" stroke="#ffffff" stroke-width="0" opacity="0" class="highcharts-point highcharts-color-0" tabindex="-1" role="img" aria-label="Wednesday, Dec 31, 2014, 4.49%. Oil intensity*." style="outline: none;"></path><path fill="#73a22a" d="M 536.5 204.66571428571 A 4 4 0 1 1 536.5002 204.66571428071 Z" stroke="#ffffff" stroke-width="0" opacity="0" class="highcharts-point highcharts-color-0" tabindex="-1" role="img" aria-label="Tuesday, Dec 31, 2013, 4.58%. Oil intensity*." style="outline: none;"></path><path fill="#73a22a" d="M 525.5 204.31428571429 A 4 4 0 1 1 525.5002 204.31428570929 Z" stroke="#ffffff" stroke-width="0" opacity="0" class="highcharts-point highcharts-color-0" tabindex="-1" role="img" aria-label="Monday, Dec 31, 2012, 4.6%. Oil intensity*." style="outline: none;"></path><path fill="#73a22a" d="M 514.5 200.44857142857 A 4 4 0 1 1 514.5002 200.44857142357 Z" stroke="#ffffff" stroke-width="0" opacity="0" class="highcharts-point highcharts-color-0" tabindex="-1" role="img" aria-label="Saturday, Dec 31, 2011, 4.82%. Oil intensity*." style="outline: none;"></path><path fill="#73a22a" d="M 503.5 197.28571428571 A 4 4 0 1 1 503.5001999999999 197.28571428070998 Z" stroke="#ffffff" stroke-width="0" opacity="0" class="highcharts-point highcharts-color-0" tabindex="-1" role="img" aria-label="Friday, Dec 31, 2010, 5%. Oil intensity*." style="outline: none;"></path><path fill="#73a22a" d="M 492.5 196.23142857143 A 4 4 0 1 1 492.5001999999999 196.23142856643 Z" stroke="#ffffff" stroke-width="0" opacity="0" class="highcharts-point highcharts-color-0" tabindex="-1" role="img" aria-label="Thursday, Dec 31, 2009, 5.06%. Oil intensity*." style="outline: none;"></path><path fill="#73a22a" d="M 481.5 193.42 A 4 4 0 1 1 481.5001999999999 193.41999999499998 Z" stroke="#ffffff" stroke-width="0" opacity="0" class="highcharts-point highcharts-color-0" tabindex="-1" role="img" aria-label="Wednesday, Dec 31, 2008, 5.22%. Oil intensity*." style="outline: none;"></path><path fill="#73a22a" d="M 470.5 186.74285714286 A 4 4 0 1 1 470.5001999999999 186.74285713786 Z" stroke="#ffffff" stroke-width="0" opacity="0" class="highcharts-point highcharts-color-0" tabindex="-1" role="img" aria-label="Monday, Dec 31, 2007, 5.6%. Oil intensity*." style="outline: none;"></path><path fill="#73a22a" d="M 459.5 184.10714285714 A 4 4 0 1 1 459.5001999999999 184.10714285214 Z" stroke="#ffffff" stroke-width="0" opacity="0" class="highcharts-point highcharts-color-0" tabindex="-1" role="img" aria-label="Sunday, Dec 31, 2006, 5.75%. Oil intensity*." style="outline: none;"></path><path fill="#73a22a" d="M 448.5 179.89 A 4 4 0 1 1 448.5001999999999 179.88999999499998 Z" stroke="#ffffff" stroke-width="0" opacity="0" class="highcharts-point highcharts-color-0" tabindex="-1" role="img" aria-label="Saturday, Dec 31, 2005, 5.99%. Oil intensity*." style="outline: none;"></path><path fill="#73a22a" d="M 437.5 176.55142857143 A 4 4 0 1 1 437.5001999999999 176.55142856643 Z" stroke="#ffffff" stroke-width="0" opacity="0" class="highcharts-point highcharts-color-0" tabindex="-1" role="img" aria-label="Friday, Dec 31, 2004, 6.18%. Oil intensity*." style="outline: none;"></path><path fill="#73a22a" d="M 426.5 176.37571428571 A 4 4 0 1 1 426.5001999999999 176.37571428070999 Z" stroke="#ffffff" stroke-width="0" opacity="0" class="highcharts-point highcharts-color-0" tabindex="-1" role="img" aria-label="Wednesday, Dec 31, 2003, 6.19%. Oil intensity*." style="outline: none;"></path><path fill="#73a22a" d="M 415.5 175.14571428571 A 4 4 0 1 1 415.5001999999999 175.14571428071 Z" stroke="#ffffff" stroke-width="0" opacity="0" class="highcharts-point highcharts-color-0" tabindex="-1" role="img" aria-label="Tuesday, Dec 31, 2002, 6.26%. Oil intensity*." style="outline: none;"></path><path fill="#73a22a" d="M 404.5 173.21285714286 A 4 4 0 1 1 404.5001999999999 173.21285713786 Z" stroke="#ffffff" stroke-width="0" opacity="0" class="highcharts-point highcharts-color-0" tabindex="-1" role="img" aria-label="Monday, Dec 31, 2001, 6.37%. Oil intensity*." style="outline: none;"></path><path fill="#73a22a" d="M 393.5 172.15857142857 A 4 4 0 1 1 393.5001999999999 172.15857142357 Z" stroke="#ffffff" stroke-width="0" opacity="0" class="highcharts-point highcharts-color-0" tabindex="-1" role="img" aria-label="Sunday, Dec 31, 2000, 6.43%. Oil intensity*." style="outline: none;"></path><path fill="#73a22a" d="M 382.5 168.46857142857 A 4 4 0 1 1 382.5001999999999 168.46857142356998 Z" stroke="#ffffff" stroke-width="0" opacity="0" class="highcharts-point highcharts-color-0" tabindex="-1" role="img" aria-label="Friday, Dec 31, 1999, 6.64%. Oil intensity*." style="outline: none;"></path><path fill="#73a22a" d="M 371.5 166.18428571429 A 4 4 0 1 1 371.5001999999999 166.18428570929 Z" stroke="#ffffff" stroke-width="0" opacity="0" class="highcharts-point highcharts-color-0" tabindex="-1" role="img" aria-label="Thursday, Dec 31, 1998, 6.77%. Oil intensity*." style="outline: none;"></path><path fill="#73a22a" d="M 360.5 163.19714285714 A 4 4 0 1 1 360.5001999999999 163.19714285214 Z" stroke="#ffffff" stroke-width="0" opacity="0" class="highcharts-point highcharts-color-0" tabindex="-1" role="img" aria-label="Wednesday, Dec 31, 1997, 6.94%. Oil intensity*." style="outline: none;"></path><path fill="#73a22a" d="M 349.5 159.33142857143 A 4 4 0 1 1 349.5001999999999 159.33142856643 Z" stroke="#ffffff" stroke-width="0" opacity="0" class="highcharts-point highcharts-color-0" tabindex="-1" role="img" aria-label="Tuesday, Dec 31, 1996, 7.16%. Oil intensity*." style="outline: none;"></path><path fill="#73a22a" d="M 338.5 159.15571428571 A 4 4 0 1 1 338.5001999999999 159.15571428071 Z" stroke="#ffffff" stroke-width="0" opacity="0" class="highcharts-point highcharts-color-0" tabindex="-1" role="img" aria-label="Sunday, Dec 31, 1995, 7.17%. Oil intensity*." style="outline: none;"></path><path fill="#73a22a" d="M 326.5 155.46571428571 A 4 4 0 1 1 326.5001999999999 155.46571428071 Z" stroke="#ffffff" stroke-width="0" opacity="0" class="highcharts-point highcharts-color-0" tabindex="-1" role="img" aria-label="Saturday, Dec 31, 1994, 7.38%. Oil intensity*." style="outline: none;"></path><path fill="#73a22a" d="M 315.5 153.53285714286 A 4 4 0 1 1 315.5001999999999 153.53285713786 Z" stroke="#ffffff" stroke-width="0" opacity="0" class="highcharts-point highcharts-color-0" tabindex="-1" role="img" aria-label="Friday, Dec 31, 1993, 7.49%. Oil intensity*." style="outline: none;"></path><path fill="#73a22a" d="M 304.5 150.89714285714 A 4 4 0 1 1 304.5001999999999 150.89714285214 Z" stroke="#ffffff" stroke-width="0" opacity="0" class="highcharts-point highcharts-color-0" tabindex="-1" role="img" aria-label="Thursday, Dec 31, 1992, 7.64%. Oil intensity*." style="outline: none;"></path><path fill="#73a22a" d="M 293.5 149.14 A 4 4 0 1 1 293.5001999999999 149.13999999499998 Z" stroke="#ffffff" stroke-width="0" opacity="0" class="highcharts-point highcharts-color-0" tabindex="-1" role="img" aria-label="Tuesday, Dec 31, 1991, 7.74%. Oil intensity*." style="outline: none;"></path><path fill="#73a22a" d="M 282.5 146.15285714286 A 4 4 0 1 1 282.5001999999999 146.15285713786 Z" stroke="#ffffff" stroke-width="0" opacity="0" class="highcharts-point highcharts-color-0" tabindex="-1" role="img" aria-label="Monday, Dec 31, 1990, 7.91%. Oil intensity*." style="outline: none;"></path><path fill="#73a22a" d="M 271.5 140.53 A 4 4 0 1 1 271.5001999999999 140.529999995 Z" stroke="#ffffff" stroke-width="0" opacity="0" class="highcharts-point highcharts-color-0" tabindex="-1" role="img" aria-label="Sunday, Dec 31, 1989, 8.23%. Oil intensity*." style="outline: none;"></path><path fill="#73a22a" d="M 260.5 135.08285714286 A 4 4 0 1 1 260.5001999999999 135.08285713786 Z" stroke="#ffffff" stroke-width="0" opacity="0" class="highcharts-point highcharts-color-0" tabindex="-1" role="img" aria-label="Saturday, Dec 31, 1988, 8.54%. Oil intensity*." style="outline: none;"></path><path fill="#73a22a" d="M 249.5 135.25857142857 A 4 4 0 1 1 249.50019999999992 135.25857142357 Z" stroke="#ffffff" stroke-width="0" opacity="0" class="highcharts-point highcharts-color-0" tabindex="-1" role="img" aria-label="Thursday, Dec 31, 1987, 8.53%. Oil intensity*." style="outline: none;"></path><path fill="#73a22a" d="M 238.5 133.15 A 4 4 0 1 1 238.50019999999992 133.149999995 Z" stroke="#ffffff" stroke-width="0" opacity="0" class="highcharts-point highcharts-color-0" tabindex="-1" role="img" aria-label="Wednesday, Dec 31, 1986, 8.65%. Oil intensity*." style="outline: none;"></path><path fill="#73a22a" d="M 227.5 135.08285714286 A 4 4 0 1 1 227.50019999999992 135.08285713786 Z" stroke="#ffffff" stroke-width="0" opacity="0" class="highcharts-point highcharts-color-0" tabindex="-1" role="img" aria-label="Tuesday, Dec 31, 1985, 8.54%. Oil intensity*." style="outline: none;"></path><path fill="#73a22a" d="M 216.5 128.05428571429002 A 4 4 0 1 1 216.50019999999992 128.05428570929 Z" stroke="#ffffff" stroke-width="0" opacity="0" class="highcharts-point highcharts-color-0" tabindex="-1" role="img" aria-label="Monday, Dec 31, 1984, 8.94%. Oil intensity*." style="outline: none;"></path><path fill="#73a22a" d="M 205.5 121.72857142857 A 4 4 0 1 1 205.50019999999992 121.72857142357 Z" stroke="#ffffff" stroke-width="0" opacity="0" class="highcharts-point highcharts-color-0" tabindex="-1" role="img" aria-label="Saturday, Dec 31, 1983, 9.3%. Oil intensity*." style="outline: none;"></path><path fill="#73a22a" d="M 194.5 113.29428571429 A 4 4 0 1 1 194.50019999999992 113.29428570929 Z" stroke="#ffffff" stroke-width="0" opacity="0" class="highcharts-point highcharts-color-0" tabindex="-1" role="img" aria-label="Friday, Dec 31, 1982, 9.78%. Oil intensity*." style="outline: none;"></path><path fill="#73a22a" d="M 183.5 106.61714285714 A 4 4 0 1 1 183.50019999999992 106.61714285213999 Z" stroke="#ffffff" stroke-width="0" opacity="0" class="highcharts-point highcharts-color-0" tabindex="-1" role="img" aria-label="Thursday, Dec 31, 1981, 10.16%. Oil intensity*." style="outline: none;"></path><path fill="#73a22a" d="M 172.5 88.694285714286 A 4 4 0 1 1 172.50019999999992 88.69428570928599 Z" stroke="#ffffff" stroke-width="0" opacity="0" class="highcharts-point highcharts-color-0" tabindex="-1" role="img" aria-label="Wednesday, Dec 31, 1980, 11.18%. Oil intensity*." style="outline: none;"></path><path fill="#73a22a" d="M 161.5 72.352857142857 A 4 4 0 1 1 161.50019999999992 72.352857137857 Z" stroke="#ffffff" stroke-width="0" opacity="0" class="highcharts-point highcharts-color-0" tabindex="-1" role="img" aria-label="Monday, Dec 31, 1979, 12.11%. Oil intensity*." style="outline: none;"></path><path fill="#73a22a" d="M 150.5 60.228571428571 A 4 4 0 1 1 150.50019999999992 60.228571423571005 Z" stroke="#ffffff" stroke-width="0" opacity="0" class="highcharts-point highcharts-color-0" tabindex="-1" role="img" aria-label="Sunday, Dec 31, 1978, 12.8%. Oil intensity*." style="outline: none;"></path><path fill="#73a22a" d="M 139.5 53.024285714286 A 4 4 0 1 1 139.50019999999992 53.024285709286005 Z" stroke="#ffffff" stroke-width="0" opacity="0" class="highcharts-point highcharts-color-0" tabindex="-1" role="img" aria-label="Saturday, Dec 31, 1977, 13.21%. Oil intensity*." style="outline: none;"></path><path fill="#73a22a" d="M 128.5 55.308571428571 A 4 4 0 1 1 128.50019999999992 55.308571423571 Z" stroke="#ffffff" stroke-width="0" opacity="0" class="highcharts-point highcharts-color-0" tabindex="-1" role="img" aria-label="Friday, Dec 31, 1976, 13.08%. Oil intensity*." style="outline: none;"></path><path fill="#73a22a" d="M 117.5 60.052857142857 A 4 4 0 1 1 117.50019999999992 60.052857137857 Z" stroke="#ffffff" stroke-width="0" opacity="0" class="highcharts-point highcharts-color-0" tabindex="-1" role="img" aria-label="Wednesday, Dec 31, 1975, 12.81%. Oil intensity*." style="outline: none;"></path><path fill="#73a22a" d="M 105.5 54.781428571429 A 4 4 0 1 1 105.50019999999992 54.781428566429 Z" stroke="#ffffff" stroke-width="0" opacity="0" class="highcharts-point highcharts-color-0" tabindex="-1" role="img" aria-label="Tuesday, Dec 31, 1974, 13.11%. Oil intensity*." style="outline: none;"></path><path fill="#73a22a" d="M 94.5 46.347142857143 A 4 4 0 1 1 94.50019999999992 46.347142852143 Z" stroke="#ffffff" stroke-width="0" opacity="0" class="highcharts-point highcharts-color-0" tabindex="-1" role="img" aria-label="Monday, Dec 31, 1973, 13.59%. Oil intensity*." style="outline: none;"></path><path fill="#73a22a" d="M 83.5 47.05 A 4 4 0 1 1 83.50019999999992 47.049999995 Z" stroke="#ffffff" stroke-width="0" opacity="0" class="highcharts-point highcharts-color-0" tabindex="-1" role="img" aria-label="Sunday, Dec 31, 1972, 13.55%. Oil intensity*." style="outline: none;"></path><path fill="#73a22a" d="M 72.5 52.672857142857 A 4 4 0 1 1 72.50019999999992 52.672857137857 Z" stroke="#ffffff" stroke-width="0" opacity="0" class="highcharts-point highcharts-color-0" tabindex="-1" role="img" aria-label="Friday, Dec 31, 1971, 13.23%. Oil intensity*." style="outline: none;"></path><path fill="#73a22a" d="M 61.5 53.2 A 4 4 0 1 1 61.500199999999914 53.199999995000006 Z" stroke="#ffffff" stroke-width="0" opacity="0" class="highcharts-point highcharts-color-0" tabindex="-1" role="img" aria-label="Thursday, Dec 31, 1970, 13.2%. Oil intensity*." style="outline: none;"></path><path fill="#73a22a" d="M 50.5 62.688571428571 A 4 4 0 1 1 50.500199999999914 62.688571423571005 Z" stroke="#ffffff" stroke-width="0" opacity="0" class="highcharts-point highcharts-color-0" tabindex="-1" role="img" aria-label="Wednesday, Dec 31, 1969, 12.66%. Oil intensity*." style="outline: none;"></path><path fill="#73a22a" d="M 39.5 66.55428571428601 A 4 4 0 1 1 39.500199999999914 66.554285709286 Z" stroke="#ffffff" stroke-width="0" opacity="0" class="highcharts-point highcharts-color-0" tabindex="-1" role="img" aria-label="Tuesday, Dec 31, 1968, 12.44%. Oil intensity*." style="outline: none;"></path><path fill="#73a22a" d="M 28.5 70.42 A 4 4 0 1 1 28.500199999999918 70.419999995 Z" stroke="#ffffff" stroke-width="0" opacity="0" class="highcharts-point highcharts-color-0" tabindex="-1" role="img" aria-label="Sunday, Dec 31, 1967, 12.22%. Oil intensity*." style="outline: none;"></path><path fill="#73a22a" d="M 17.5 73.055714285714 A 4 4 0 1 1 17.500199999999918 73.055714280714 Z" stroke="#ffffff" stroke-width="0" opacity="0" class="highcharts-point highcharts-color-0" tabindex="-1" role="img" aria-label="Saturday, Dec 31, 1966, 12.07%. Oil intensity*." style="outline: none;"></path><path fill="#73a22a" d="M 6.5 70.068571428571 A 4 4 0 1 1 6.500199999999918 70.068571423571 Z" stroke="#ffffff" stroke-width="0" opacity="0" class="highcharts-point highcharts-color-0" tabindex="-1" role="img" aria-label="Friday, Dec 31, 1965, 12.24%. Oil intensity*." style="outline: none;"></path></g></g><g class="highcharts-exporting-group" data-z-index="3" aria-hidden="true"><g class="highcharts-no-tooltip highcharts-button highcharts-contextbutton" stroke-linecap="round" style="cursor: pointer;" transform="translate(735,5)"><title>Chart context menu</title><rect fill="#ffffff" class="highcharts-button-box" x="0.5" y="0.5" width="28" height="28" rx="2" ry="2" stroke="none" stroke-width="1"></rect><path fill="#666666" d="M 8 9.5 L 22 9.5 M 8 14.5 L 22 14.5 M 8 19.5 L 22 19.5" class="highcharts-button-symbol" data-z-index="1" stroke="#666666" stroke-width="3"></path><text x="28" data-z-index="1" y="18.5" text-anchor="end" style="font-size: 0.8em; font-weight: normal; fill: rgb(51, 51, 51);"></text></g></g><g class="highcharts-datalabels-group" data-z-index="6" aria-hidden="true"></g><g class="highcharts-legend highcharts-no-tooltip" data-z-index="7" text-align="left" transform="translate(10,372)" aria-hidden="true"><rect fill="none" class="highcharts-legend-box" rx="0" ry="0" stroke="#999999" stroke-width="0" filter="none" x="0" y="0" width="107" height="38"></rect><g data-z-index="1"><g><g class="highcharts-legend-item highcharts-line-series highcharts-color-0 highcharts-series-0" data-z-index="1" transform="translate(8,3)"><path fill="none" class="highcharts-graph" stroke-width="3" stroke-linecap="round" d="M 1.5 13 L 14.5 13" stroke="#73a22a"></path><text x="21" text-anchor="start" data-z-index="2" style="cursor: pointer; font-size: 0.8em; text-decoration: none; fill: rgb(51, 51, 51);" y="17">Oil intensity*</text></g></g></g></g><g class="highcharts-axis-labels highcharts-xaxis-labels" data-z-index="7" aria-hidden="true"><text x="148.75007961421" text-anchor="middle" transform="translate(0,0)" style="cursor: default; font-size: 0.8em; fill: rgb(90, 109, 120);" y="337" opacity="1">1970</text><text x="259.23549883991" text-anchor="middle" transform="translate(0,0)" style="cursor: default; font-size: 0.8em; fill: rgb(90, 109, 120);" y="337" opacity="1">1980</text><text x="369.75117146627" text-anchor="middle" transform="translate(0,0)" style="cursor: default; font-size: 0.8em; fill: rgb(90, 109, 120);" y="337" opacity="1">1990</text><text x="480.23659069196" text-anchor="middle" transform="translate(0,0)" style="cursor: default; font-size: 0.8em; fill: rgb(90, 109, 120);" y="337" opacity="1">2000</text><text x="590.75226331832" text-anchor="middle" transform="translate(0,0)" style="cursor: default; font-size: 0.8em; fill: rgb(90, 109, 120);" y="337" opacity="1">2010</text><text x="701.23768254402" text-anchor="middle" transform="translate(0,0)" style="cursor: default; font-size: 0.8em; fill: rgb(90, 109, 120);" y="337" opacity="1">2020</text></g><g class="highcharts-axis-labels highcharts-yaxis-labels" data-z-index="7" aria-hidden="true"><text x="83" text-anchor="end" transform="translate(0,0)" style="cursor: default; font-size: 0.8em; fill: rgb(90, 109, 120);" y="315" opacity="1">2%</text><text x="83" text-anchor="end" transform="translate(0,0)" style="cursor: default; font-size: 0.8em; fill: rgb(90, 109, 120);" y="280" opacity="1">4%</text><text x="83" text-anchor="end" transform="translate(0,0)" style="cursor: default; font-size: 0.8em; fill: rgb(90, 109, 120);" y="245" opacity="1">6%</text><text x="83" text-anchor="end" transform="translate(0,0)" style="cursor: default; font-size: 0.8em; fill: rgb(90, 109, 120);" y="210" opacity="1">8%</text><text x="83" text-anchor="end" transform="translate(0,0)" style="cursor: default; font-size: 0.8em; fill: rgb(90, 109, 120);" y="174" opacity="1">10%</text><text x="83" text-anchor="end" transform="translate(0,0)" style="cursor: default; font-size: 0.8em; fill: rgb(90, 109, 120);" y="139" opacity="1">12%</text><text x="83" text-anchor="end" transform="translate(0,0)" style="cursor: default; font-size: 0.8em; fill: rgb(90, 109, 120);" y="104" opacity="1">14%</text><text x="83" text-anchor="end" transform="translate(0,0)" style="cursor: default; font-size: 0.8em; fill: rgb(90, 109, 120);" y="69" opacity="1">16%</text></g><text x="763" class="highcharts-credits" text-anchor="end" data-z-index="8" text-align="right" y="420" style="cursor: pointer; font-size: 0.6em; fill: rgb(90, 109, 120);" aria-label="Chart credits: " aria-hidden="false"></text><g class="highcharts-control-points" data-z-index="99" clip-path="url(#highcharts-7wgd5ae-67-)" aria-hidden="true"></g></svg>