<svg version="1.1" class="highcharts-root" style="font-family: DwsSlab; font-size: 1rem;" xmlns="http://www.w3.org/2000/svg" width="773" height="444" viewBox="0 0 773 444" aria-hidden="false" aria-label="Interactive chart"><desc aria-hidden="true">Created with Highcharts 12.4.0</desc><defs aria-hidden="true"><filter id="highcharts-drop-shadow-0"><feDropShadow dx="1" dy="1" flood-color="#000000" flood-opacity="0.75" stdDeviation="2.5"></feDropShadow></filter><clipPath id="highcharts-7m8do89-33-"><rect x="1" y="0" width="674" height="242" fill="none"></rect></clipPath><clipPath id="highcharts-7m8do89-80-"><rect x="89" y="64" width="674" height="242" fill="none"></rect></clipPath></defs><rect fill="#ffffff" class="highcharts-background" filter="none" x="0" y="0" width="773" height="444" rx="0" ry="0" aria-hidden="true"></rect><rect fill="none" class="highcharts-plot-background" x="89" y="64" width="674" height="242" filter="none" aria-hidden="true"></rect><g class="highcharts-pane-group" data-z-index="0" aria-hidden="true"></g><g class="highcharts-grid highcharts-xaxis-grid" data-z-index="1" aria-hidden="true"><path fill="none" stroke="#ebeef0" stroke-width="0" stroke-dasharray="none" data-z-index="1" class="highcharts-grid-line" d="M 118.5 64 L 118.5 306" opacity="1"></path><path fill="none" stroke="#ebeef0" stroke-width="0" stroke-dasharray="none" data-z-index="1" class="highcharts-grid-line" d="M 147.5 64 L 147.5 306" opacity="1"></path><path fill="none" stroke="#ebeef0" stroke-width="0" stroke-dasharray="none" data-z-index="1" class="highcharts-grid-line" d="M 176.5 64 L 176.5 306" opacity="1"></path><path fill="none" stroke="#ebeef0" stroke-width="0" stroke-dasharray="none" data-z-index="1" class="highcharts-grid-line" d="M 206.5 64 L 206.5 306" opacity="1"></path><path fill="none" stroke="#ebeef0" stroke-width="0" stroke-dasharray="none" data-z-index="1" class="highcharts-grid-line" d="M 235.5 64 L 235.5 306" opacity="1"></path><path fill="none" stroke="#ebeef0" stroke-width="0" stroke-dasharray="none" data-z-index="1" class="highcharts-grid-line" d="M 264.5 64 L 264.5 306" opacity="1"></path><path fill="none" stroke="#ebeef0" stroke-width="0" stroke-dasharray="none" data-z-index="1" class="highcharts-grid-line" d="M 294.5 64 L 294.5 306" opacity="1"></path><path fill="none" stroke="#ebeef0" stroke-width="0" stroke-dasharray="none" data-z-index="1" class="highcharts-grid-line" d="M 323.5 64 L 323.5 306" opacity="1"></path><path fill="none" stroke="#ebeef0" stroke-width="0" stroke-dasharray="none" data-z-index="1" class="highcharts-grid-line" d="M 352.5 64 L 352.5 306" opacity="1"></path><path fill="none" stroke="#ebeef0" stroke-width="0" stroke-dasharray="none" data-z-index="1" class="highcharts-grid-line" d="M 382.5 64 L 382.5 306" opacity="1"></path><path fill="none" stroke="#ebeef0" stroke-width="0" stroke-dasharray="none" data-z-index="1" class="highcharts-grid-line" d="M 411.5 64 L 411.5 306" opacity="1"></path><path fill="none" stroke="#ebeef0" stroke-width="0" stroke-dasharray="none" data-z-index="1" class="highcharts-grid-line" d="M 440.5 64 L 440.5 306" opacity="1"></path><path fill="none" stroke="#ebeef0" stroke-width="0" stroke-dasharray="none" data-z-index="1" class="highcharts-grid-line" d="M 469.5 64 L 469.5 306" opacity="1"></path><path fill="none" stroke="#ebeef0" stroke-width="0" stroke-dasharray="none" data-z-index="1" class="highcharts-grid-line" d="M 499.5 64 L 499.5 306" opacity="1"></path><path fill="none" stroke="#ebeef0" stroke-width="0" stroke-dasharray="none" data-z-index="1" class="highcharts-grid-line" d="M 528.5 64 L 528.5 306" opacity="1"></path><path fill="none" stroke="#ebeef0" stroke-width="0" stroke-dasharray="none" data-z-index="1" class="highcharts-grid-line" d="M 557.5 64 L 557.5 306" opacity="1"></path><path fill="none" stroke="#ebeef0" stroke-width="0" stroke-dasharray="none" data-z-index="1" class="highcharts-grid-line" d="M 587.5 64 L 587.5 306" opacity="1"></path><path fill="none" stroke="#ebeef0" stroke-width="0" stroke-dasharray="none" data-z-index="1" class="highcharts-grid-line" d="M 616.5 64 L 616.5 306" opacity="1"></path><path fill="none" stroke="#ebeef0" stroke-width="0" stroke-dasharray="none" data-z-index="1" class="highcharts-grid-line" d="M 645.5 64 L 645.5 306" opacity="1"></path><path fill="none" stroke="#ebeef0" stroke-width="0" stroke-dasharray="none" data-z-index="1" class="highcharts-grid-line" d="M 675.5 64 L 675.5 306" opacity="1"></path><path fill="none" stroke="#ebeef0" stroke-width="0" stroke-dasharray="none" data-z-index="1" class="highcharts-grid-line" d="M 704.5 64 L 704.5 306" opacity="1"></path><path fill="none" stroke="#ebeef0" stroke-width="0" stroke-dasharray="none" data-z-index="1" class="highcharts-grid-line" d="M 733.5 64 L 733.5 306" opacity="1"></path><path fill="none" stroke="#ebeef0" stroke-width="0" stroke-dasharray="none" data-z-index="1" class="highcharts-grid-line" d="M 763.5 64 L 763.5 306" opacity="1"></path><path fill="none" stroke="#ebeef0" stroke-width="0" stroke-dasharray="none" data-z-index="1" class="highcharts-grid-line" d="M 89.5 64 L 89.5 306" opacity="1"></path></g><g class="highcharts-grid highcharts-yaxis-grid" data-z-index="1" aria-hidden="true"><path fill="none" stroke="#ebeef0" stroke-width="1" stroke-dasharray="none" data-z-index="1" class="highcharts-grid-line" d="M 89 306.5 L 763 306.5" opacity="1"></path><path fill="none" stroke="#ebeef0" stroke-width="1" stroke-dasharray="none" data-z-index="1" class="highcharts-grid-line" d="M 89 225.5 L 763 225.5" opacity="1"></path><path fill="none" stroke="#ebeef0" stroke-width="1" stroke-dasharray="none" data-z-index="1" class="highcharts-grid-line" d="M 89 144.5 L 763 144.5" opacity="1"></path><path fill="none" stroke="#ebeef0" stroke-width="1" stroke-dasharray="none" data-z-index="1" class="highcharts-grid-line" d="M 89 64.5 L 763 64.5" opacity="1"></path></g><rect fill="none" class="highcharts-plot-border" data-z-index="1" stroke="#cccccc" stroke-width="0" x="89" y="64" width="674" height="242" aria-hidden="true"></rect><g class="highcharts-axis highcharts-xaxis" data-z-index="2" aria-hidden="true"><path fill="none" class="highcharts-axis-line" stroke="#ebeef0" stroke-width="1" data-z-index="7" d="M 89 306.5 L 763 306.5"></path></g><g class="highcharts-axis highcharts-yaxis" data-z-index="2" aria-hidden="true"><path fill="none" class="highcharts-axis-line" stroke="#ebeef0" stroke-width="1" data-z-index="7" d="M 89.5 64 L 89.5 306"></path></g><g class="highcharts-series-group" data-z-index="3" filter="none" aria-hidden="false"><g class="highcharts-series highcharts-series-0 highcharts-column-series highcharts-color-0 highcharts-tracker" data-z-index="0.1" opacity="1" transform="translate(89,64) scale(1 1)" clip-path="url(#highcharts-7m8do89-33-)" aria-hidden="false" role="region" tabindex="-1" aria-label="BDCs, bar series 1 of 3 with 23 bars." style="outline: none;"><path fill="#73a22a" d="M 10 241 L 19 241 A 0 0 0 0 1 19 241 L 19 242 A 0 0 0 0 1 19 242 L 10 242 A 0 0 0 0 1 10 242 L 10 241 A 0 0 0 0 1 10 241 Z" stroke="#ffffff" stroke-width="0" opacity="1" filter="none" class="highcharts-point highcharts-color-0" tabindex="-1" role="img" aria-label="2002, 5.614557. BDCs." style="outline: none;"></path><path fill="#73a22a" d="M 40 241 L 49 241 A 0 0 0 0 1 49 241 L 49 242 A 0 0 0 0 1 49 242 L 40 242 A 0 0 0 0 1 40 242 L 40 241 A 0 0 0 0 1 40 241 Z" stroke="#ffffff" stroke-width="0" opacity="1" filter="none" class="highcharts-point highcharts-color-0" tabindex="-1" role="img" aria-label="2003, 6.840436. BDCs." style="outline: none;"></path><path fill="#73a22a" d="M 69 240 L 78 240 A 0 0 0 0 1 78 240 L 78 242 A 0 0 0 0 1 78 242 L 69 242 A 0 0 0 0 1 69 242 L 69 240 A 0 0 0 0 1 69 240 Z" stroke="#ffffff" stroke-width="0" opacity="1" filter="none" class="highcharts-point highcharts-color-0" tabindex="-1" role="img" aria-label="2004, 11.000526. BDCs." style="outline: none;"></path><path fill="#73a22a" d="M 98 239 L 107 239 A 0 0 0 0 1 107 239 L 107 242 A 0 0 0 0 1 107 242 L 98 242 A 0 0 0 0 1 98 242 L 98 239 A 0 0 0 0 1 98 239 Z" stroke="#ffffff" stroke-width="0" opacity="1" filter="none" class="highcharts-point highcharts-color-0" tabindex="-1" role="img" aria-label="2005, 16.025673. BDCs." style="outline: none;"></path><path fill="#73a22a" d="M 128 238 L 137 238 A 0 0 0 0 1 137 238 L 137 242 A 0 0 0 0 1 137 242 L 128 242 A 0 0 0 0 1 128 242 L 128 238 A 0 0 0 0 1 128 238 Z" stroke="#ffffff" stroke-width="0" opacity="1" filter="none" class="highcharts-point highcharts-color-0" tabindex="-1" role="img" aria-label="2006, 22.925725. BDCs." style="outline: none;"></path><path fill="#73a22a" d="M 157 237 L 166 237 A 0 0 0 0 1 166 237 L 166 242 A 0 0 0 0 1 166 242 L 157 242 A 0 0 0 0 1 157 242 L 157 237 A 0 0 0 0 1 157 237 Z" stroke="#ffffff" stroke-width="0" opacity="1" filter="none" class="highcharts-point highcharts-color-0" tabindex="-1" role="img" aria-label="2007, 31.258053. BDCs." style="outline: none;"></path><path fill="#73a22a" d="M 186 238 L 195 238 A 0 0 0 0 1 195 238 L 195 242 A 0 0 0 0 1 195 242 L 186 242 A 0 0 0 0 1 186 242 L 186 238 A 0 0 0 0 1 186 238 Z" stroke="#ffffff" stroke-width="0" opacity="1" filter="none" class="highcharts-point highcharts-color-0" tabindex="-1" role="img" aria-label="2008, 24.987905. BDCs." style="outline: none;"></path><path fill="#73a22a" d="M 215 238 L 224 238 A 0 0 0 0 1 224 238 L 224 242 A 0 0 0 0 1 224 242 L 215 242 A 0 0 0 0 1 215 242 L 215 238 A 0 0 0 0 1 215 238 Z" stroke="#ffffff" stroke-width="0" opacity="1" filter="none" class="highcharts-point highcharts-color-0" tabindex="-1" role="img" aria-label="2009, 24.542391. BDCs." style="outline: none;"></path><path fill="#73a22a" d="M 245 238 L 254 238 A 0 0 0 0 1 254 238 L 254 242 A 0 0 0 0 1 254 242 L 245 242 A 0 0 0 0 1 245 242 L 245 238 A 0 0 0 0 1 245 238 Z" stroke="#ffffff" stroke-width="0" opacity="1" filter="none" class="highcharts-point highcharts-color-0" tabindex="-1" role="img" aria-label="2010, 26.169794. BDCs." style="outline: none;"></path><path fill="#73a22a" d="M 274 237 L 283 237 A 0 0 0 0 1 283 237 L 283 242 A 0 0 0 0 1 283 242 L 274 242 A 0 0 0 0 1 274 242 L 274 237 A 0 0 0 0 1 274 237 Z" stroke="#ffffff" stroke-width="0" opacity="1" filter="none" class="highcharts-point highcharts-color-0" tabindex="-1" role="img" aria-label="2011, 32.425446. BDCs." style="outline: none;"></path><path fill="#73a22a" d="M 303 235 L 312 235 A 0 0 0 0 1 312 235 L 312 242 A 0 0 0 0 1 312 242 L 303 242 A 0 0 0 0 1 303 242 L 303 235 A 0 0 0 0 1 303 235 Z" stroke="#ffffff" stroke-width="0" opacity="1" filter="none" class="highcharts-point highcharts-color-0" tabindex="-1" role="img" aria-label="2012, 45.217648. BDCs." style="outline: none;"></path><path fill="#73a22a" d="M 333 232 L 342 232 A 0 0 0 0 1 342 232 L 342 242 A 0 0 0 0 1 342 242 L 333 242 A 0 0 0 0 1 333 242 L 333 232 A 0 0 0 0 1 333 232 Z" stroke="#ffffff" stroke-width="0" opacity="1" filter="none" class="highcharts-point highcharts-color-0" tabindex="-1" role="img" aria-label="2013, 61.925959. BDCs." style="outline: none;"></path><path fill="#73a22a" d="M 362 229 L 371 229 A 0 0 0 0 1 371 229 L 371 242 A 0 0 0 0 1 371 242 L 362 242 A 0 0 0 0 1 362 242 L 362 229 A 0 0 0 0 1 362 229 Z" stroke="#ffffff" stroke-width="0" opacity="1" filter="none" class="highcharts-point highcharts-color-0" tabindex="-1" role="img" aria-label="2014, 79.654195. BDCs." style="outline: none;"></path><path fill="#73a22a" d="M 391 229 L 400 229 A 0 0 0 0 1 400 229 L 400 242 A 0 0 0 0 1 400 242 L 391 242 A 0 0 0 0 1 391 242 L 391 229 A 0 0 0 0 1 391 229 Z" stroke="#ffffff" stroke-width="0" opacity="1" filter="none" class="highcharts-point highcharts-color-0" tabindex="-1" role="img" aria-label="2015, 83.306246. BDCs." style="outline: none;"></path><path fill="#73a22a" d="M 421 229 L 430 229 A 0 0 0 0 1 430 229 L 430 242 A 0 0 0 0 1 430 242 L 421 242 A 0 0 0 0 1 421 242 L 421 229 A 0 0 0 0 1 421 229 Z" stroke="#ffffff" stroke-width="0" opacity="1" filter="none" class="highcharts-point highcharts-color-0" tabindex="-1" role="img" aria-label="2016, 83.478. BDCs." style="outline: none;"></path><path fill="#73a22a" d="M 450 227 L 459 227 A 0 0 0 0 1 459 227 L 459 242 A 0 0 0 0 1 459 242 L 450 242 A 0 0 0 0 1 450 242 L 450 227 A 0 0 0 0 1 450 227 Z" stroke="#ffffff" stroke-width="0" opacity="1" filter="none" class="highcharts-point highcharts-color-0" tabindex="-1" role="img" aria-label="2017, 92.038. BDCs." style="outline: none;"></path><path fill="#73a22a" d="M 479 226 L 488 226 A 0 0 0 0 1 488 226 L 488 242 A 0 0 0 0 1 488 242 L 479 242 A 0 0 0 0 1 479 242 L 479 226 A 0 0 0 0 1 479 226 Z" stroke="#ffffff" stroke-width="0" opacity="1" filter="none" class="highcharts-point highcharts-color-0" tabindex="-1" role="img" aria-label="2018, 100.818. BDCs." style="outline: none;"></path><path fill="#73a22a" d="M 509 222 L 518 222 A 0 0 0 0 1 518 222 L 518 242 A 0 0 0 0 1 518 242 L 509 242 A 0 0 0 0 1 509 242 L 509 222 A 0 0 0 0 1 509 222 Z" stroke="#ffffff" stroke-width="0" opacity="1" filter="none" class="highcharts-point highcharts-color-0" tabindex="-1" role="img" aria-label="2019, 123.085. BDCs." style="outline: none;"></path><path fill="#73a22a" d="M 538 220 L 547 220 A 0 0 0 0 1 547 220 L 547 242 A 0 0 0 0 1 547 242 L 538 242 A 0 0 0 0 1 538 242 L 538 220 A 0 0 0 0 1 538 220 Z" stroke="#ffffff" stroke-width="0" opacity="1" filter="none" class="highcharts-point highcharts-color-0" tabindex="-1" role="img" aria-label="2020, 134.271696. BDCs." style="outline: none;"></path><path fill="#73a22a" d="M 567 208 L 576 208 A 0 0 0 0 1 576 208 L 576 242 A 0 0 0 0 1 576 242 L 567 242 A 0 0 0 0 1 567 242 L 567 208 A 0 0 0 0 1 567 208 Z" stroke="#ffffff" stroke-width="0" opacity="1" filter="none" class="highcharts-point highcharts-color-0" tabindex="-1" role="img" aria-label="2021, 207.654. BDCs." style="outline: none;"></path><path fill="#73a22a" d="M 596 198 L 605 198 A 0 0 0 0 1 605 198 L 605 242 A 0 0 0 0 1 605 242 L 596 242 A 0 0 0 0 1 596 242 L 596 198 A 0 0 0 0 1 596 198 Z" stroke="#ffffff" stroke-width="0" opacity="1" filter="none" class="highcharts-point highcharts-color-0" tabindex="-1" role="img" aria-label="2022, 273.39. BDCs." style="outline: none;"></path><path fill="#73a22a" d="M 626 191 L 635 191 A 0 0 0 0 1 635 191 L 635 242 A 0 0 0 0 1 635 242 L 626 242 A 0 0 0 0 1 626 242 L 626 191 A 0 0 0 0 1 626 191 Z" stroke="#ffffff" stroke-width="0" opacity="1" filter="none" class="highcharts-point highcharts-color-0" tabindex="-1" role="img" aria-label="2023, 318.762. BDCs." style="outline: none;"></path><path fill="#73a22a" d="M 655 182 L 664 182 A 0 0 0 0 1 664 182 L 664 242 A 0 0 0 0 1 664 242 L 655 242 A 0 0 0 0 1 655 242 L 655 182 A 0 0 0 0 1 655 182 Z" stroke="#ffffff" stroke-width="0" opacity="1" filter="none" class="highcharts-point highcharts-color-0" tabindex="-1" role="img" aria-label="2024*, 374.889. BDCs." style="outline: none;"></path></g><g class="highcharts-markers highcharts-series-0 highcharts-column-series highcharts-color-0" data-z-index="0.1" opacity="1" transform="translate(89,64) scale(1 1)" clip-path="none" aria-hidden="true"></g><g class="highcharts-series highcharts-series-1 highcharts-column-series highcharts-color-1 highcharts-tracker" data-z-index="0.1" opacity="1" transform="translate(89,64) scale(1 1)" clip-path="url(#highcharts-7m8do89-33-)" aria-hidden="false" role="region" tabindex="-1" aria-label="Private debt funds (invested capital), bar series 2 of 3 with 23 bars." style="outline: none;"><path fill="#489cd2" d="M 10 235 L 19 235 A 0 0 0 0 1 19 235 L 19 241 A 0 0 0 0 1 19 241 L 10 241 A 0 0 0 0 1 10 241 L 10 235 A 0 0 0 0 1 10 235 Z" stroke="#ffffff" stroke-width="0" opacity="1" filter="none" class="highcharts-point highcharts-color-1" tabindex="-1" role="img" aria-label="2002, 35.5. Private debt funds (invested capital)." style="outline: none;"></path><path fill="#489cd2" d="M 40 235 L 49 235 A 0 0 0 0 1 49 235 L 49 241 A 0 0 0 0 1 49 241 L 40 241 A 0 0 0 0 1 40 241 L 40 235 A 0 0 0 0 1 40 235 Z" stroke="#ffffff" stroke-width="0" opacity="1" filter="none" class="highcharts-point highcharts-color-1" tabindex="-1" role="img" aria-label="2003, 37.5. Private debt funds (invested capital)." style="outline: none;"></path><path fill="#489cd2" d="M 69 234 L 78 234 A 0 0 0 0 1 78 234 L 78 240 A 0 0 0 0 1 78 240 L 69 240 A 0 0 0 0 1 69 240 L 69 234 A 0 0 0 0 1 69 234 Z" stroke="#ffffff" stroke-width="0" opacity="1" filter="none" class="highcharts-point highcharts-color-1" tabindex="-1" role="img" aria-label="2004, 41.4. Private debt funds (invested capital)." style="outline: none;"></path><path fill="#489cd2" d="M 98 231 L 107 231 A 0 0 0 0 1 107 231 L 107 239 A 0 0 0 0 1 107 239 L 98 239 A 0 0 0 0 1 98 239 L 98 231 A 0 0 0 0 1 98 231 Z" stroke="#ffffff" stroke-width="0" opacity="1" filter="none" class="highcharts-point highcharts-color-1" tabindex="-1" role="img" aria-label="2005, 49.9. Private debt funds (invested capital)." style="outline: none;"></path><path fill="#489cd2" d="M 128 228 L 137 228 A 0 0 0 0 1 137 228 L 137 238 A 0 0 0 0 1 137 238 L 128 238 A 0 0 0 0 1 128 238 L 128 228 A 0 0 0 0 1 128 228 Z" stroke="#ffffff" stroke-width="0" opacity="1" filter="none" class="highcharts-point highcharts-color-1" tabindex="-1" role="img" aria-label="2006, 66.1. Private debt funds (invested capital)." style="outline: none;"></path><path fill="#489cd2" d="M 157 222 L 166 222 A 0 0 0 0 1 166 222 L 166 237 A 0 0 0 0 1 166 237 L 157 237 A 0 0 0 0 1 157 237 L 157 222 A 0 0 0 0 1 157 222 Z" stroke="#ffffff" stroke-width="0" opacity="1" filter="none" class="highcharts-point highcharts-color-1" tabindex="-1" role="img" aria-label="2007, 95.5. Private debt funds (invested capital)." style="outline: none;"></path><path fill="#489cd2" d="M 186 217 L 195 217 A 0 0 0 0 1 195 217 L 195 238 A 0 0 0 0 1 195 238 L 186 238 A 0 0 0 0 1 186 238 L 186 217 A 0 0 0 0 1 186 217 Z" stroke="#ffffff" stroke-width="0" opacity="1" filter="none" class="highcharts-point highcharts-color-1" tabindex="-1" role="img" aria-label="2008, 129.2. Private debt funds (invested capital)." style="outline: none;"></path><path fill="#489cd2" d="M 215 210 L 224 210 A 0 0 0 0 1 224 210 L 224 238 A 0 0 0 0 1 224 238 L 215 238 A 0 0 0 0 1 215 238 L 215 210 A 0 0 0 0 1 215 210 Z" stroke="#ffffff" stroke-width="0" opacity="1" filter="none" class="highcharts-point highcharts-color-1" tabindex="-1" role="img" aria-label="2009, 174.5. Private debt funds (invested capital)." style="outline: none;"></path><path fill="#489cd2" d="M 245 205 L 254 205 A 0 0 0 0 1 254 205 L 254 238 A 0 0 0 0 1 254 238 L 245 238 A 0 0 0 0 1 245 238 L 245 205 A 0 0 0 0 1 245 205 Z" stroke="#ffffff" stroke-width="0" opacity="1" filter="none" class="highcharts-point highcharts-color-1" tabindex="-1" role="img" aria-label="2010, 200.9. Private debt funds (invested capital)." style="outline: none;"></path><path fill="#489cd2" d="M 274 206 L 283 206 A 0 0 0 0 1 283 206 L 283 237 A 0 0 0 0 1 283 237 L 274 237 A 0 0 0 0 1 274 237 L 274 206 A 0 0 0 0 1 274 206 Z" stroke="#ffffff" stroke-width="0" opacity="1" filter="none" class="highcharts-point highcharts-color-1" tabindex="-1" role="img" aria-label="2011, 193.6. Private debt funds (invested capital)." style="outline: none;"></path><path fill="#489cd2" d="M 303 203 L 312 203 A 0 0 0 0 1 312 203 L 312 235 A 0 0 0 0 1 312 235 L 303 235 A 0 0 0 0 1 303 235 L 303 203 A 0 0 0 0 1 303 203 Z" stroke="#ffffff" stroke-width="0" opacity="1" filter="none" class="highcharts-point highcharts-color-1" tabindex="-1" role="img" aria-label="2012, 197.2. Private debt funds (invested capital)." style="outline: none;"></path><path fill="#489cd2" d="M 333 202 L 342 202 A 0 0 0 0 1 342 202 L 342 232 A 0 0 0 0 1 342 232 L 333 232 A 0 0 0 0 1 333 232 L 333 202 A 0 0 0 0 1 333 202 Z" stroke="#ffffff" stroke-width="0" opacity="1" filter="none" class="highcharts-point highcharts-color-1" tabindex="-1" role="img" aria-label="2013, 188.9. Private debt funds (invested capital)." style="outline: none;"></path><path fill="#489cd2" d="M 362 197 L 371 197 A 0 0 0 0 1 371 197 L 371 229 A 0 0 0 0 1 371 229 L 362 229 A 0 0 0 0 1 362 229 L 362 197 A 0 0 0 0 1 362 197 Z" stroke="#ffffff" stroke-width="0" opacity="1" filter="none" class="highcharts-point highcharts-color-1" tabindex="-1" role="img" aria-label="2014, 200.6. Private debt funds (invested capital)." style="outline: none;"></path><path fill="#489cd2" d="M 391 196 L 400 196 A 0 0 0 0 1 400 196 L 400 229 A 0 0 0 0 1 400 229 L 391 229 A 0 0 0 0 1 391 229 L 391 196 A 0 0 0 0 1 391 196 Z" stroke="#ffffff" stroke-width="0" opacity="1" filter="none" class="highcharts-point highcharts-color-1" tabindex="-1" role="img" aria-label="2015, 202.5. Private debt funds (invested capital)." style="outline: none;"></path><path fill="#489cd2" d="M 421 192 L 430 192 A 0 0 0 0 1 430 192 L 430 229 A 0 0 0 0 1 430 229 L 421 229 A 0 0 0 0 1 421 229 L 421 192 A 0 0 0 0 1 421 192 Z" stroke="#ffffff" stroke-width="0" opacity="1" filter="none" class="highcharts-point highcharts-color-1" tabindex="-1" role="img" aria-label="2016, 224.7. Private debt funds (invested capital)." style="outline: none;"></path><path fill="#489cd2" d="M 450 187 L 459 187 A 0 0 0 0 1 459 187 L 459 227 A 0 0 0 0 1 459 227 L 450 227 A 0 0 0 0 1 450 227 L 450 187 A 0 0 0 0 1 450 187 Z" stroke="#ffffff" stroke-width="0" opacity="1" filter="none" class="highcharts-point highcharts-color-1" tabindex="-1" role="img" aria-label="2017, 248.1. Private debt funds (invested capital)." style="outline: none;"></path><path fill="#489cd2" d="M 479 179 L 488 179 A 0 0 0 0 1 488 179 L 488 226 A 0 0 0 0 1 488 226 L 479 226 A 0 0 0 0 1 479 226 L 479 179 A 0 0 0 0 1 479 179 Z" stroke="#ffffff" stroke-width="0" opacity="1" filter="none" class="highcharts-point highcharts-color-1" tabindex="-1" role="img" aria-label="2018, 287.9. Private debt funds (invested capital)." style="outline: none;"></path><path fill="#489cd2" d="M 509 168 L 518 168 A 0 0 0 0 1 518 168 L 518 222 A 0 0 0 0 1 518 222 L 509 222 A 0 0 0 0 1 509 222 L 509 168 A 0 0 0 0 1 509 168 Z" stroke="#ffffff" stroke-width="0" opacity="1" filter="none" class="highcharts-point highcharts-color-1" tabindex="-1" role="img" aria-label="2019, 337.1. Private debt funds (invested capital)." style="outline: none;"></path><path fill="#489cd2" d="M 538 154 L 547 154 A 0 0 0 0 1 547 154 L 547 220 A 0 0 0 0 1 547 220 L 538 220 A 0 0 0 0 1 538 220 L 538 154 A 0 0 0 0 1 538 154 Z" stroke="#ffffff" stroke-width="0" opacity="1" filter="none" class="highcharts-point highcharts-color-1" tabindex="-1" role="img" aria-label="2020, 412.3. Private debt funds (invested capital)." style="outline: none;"></path><path fill="#489cd2" d="M 567 118 L 576 118 A 0 0 0 0 1 576 118 L 576 208 A 0 0 0 0 1 576 208 L 567 208 A 0 0 0 0 1 567 208 L 567 118 A 0 0 0 0 1 567 118 Z" stroke="#ffffff" stroke-width="0" opacity="1" filter="none" class="highcharts-point highcharts-color-1" tabindex="-1" role="img" aria-label="2021, 559.2. Private debt funds (invested capital)." style="outline: none;"></path><path fill="#489cd2" d="M 596 95 L 605 95 A 0 0 0 0 1 605 95 L 605 198 A 0 0 0 0 1 605 198 L 596 198 A 0 0 0 0 1 596 198 L 596 95 A 0 0 0 0 1 596 95 Z" stroke="#ffffff" stroke-width="0" opacity="1" filter="none" class="highcharts-point highcharts-color-1" tabindex="-1" role="img" aria-label="2022, 634.9. Private debt funds (invested capital)." style="outline: none;"></path><path fill="#489cd2" d="M 626 71 L 635 71 A 0 0 0 0 1 635 71 L 635 191 A 0 0 0 0 1 635 191 L 626 191 A 0 0 0 0 1 626 191 L 626 71 A 0 0 0 0 1 626 71 Z" stroke="#ffffff" stroke-width="0" opacity="1" filter="none" class="highcharts-point highcharts-color-1" tabindex="-1" role="img" aria-label="2023, 742.3. Private debt funds (invested capital)." style="outline: none;"></path><path fill="#489cd2" d="M 655 60 L 664 60 A 0 0 0 0 1 664 60 L 664 182 A 0 0 0 0 1 664 182 L 655 182 A 0 0 0 0 1 655 182 L 655 60 A 0 0 0 0 1 655 60 Z" stroke="#ffffff" stroke-width="0" opacity="1" filter="none" class="highcharts-point highcharts-color-1" tabindex="-1" role="img" aria-label="2024*, 753.1. Private debt funds (invested capital)." style="outline: none;"></path></g><g class="highcharts-markers highcharts-series-1 highcharts-column-series highcharts-color-1" data-z-index="0.1" opacity="1" transform="translate(89,64) scale(1 1)" clip-path="none" aria-hidden="true"></g><g class="highcharts-series highcharts-series-2 highcharts-column-series highcharts-color-2 highcharts-tracker" data-z-index="0.1" opacity="1" transform="translate(89,64) scale(1 1)" clip-path="url(#highcharts-7m8do89-33-)" aria-hidden="false" role="region" tabindex="-1" aria-label="Private debt funds (dry powder), bar series 3 of 3 with 23 bars." style="outline: none;"><path fill="#5a6d78" d="M 12 232 L 17 232 A 2 2 0 0 1 19 234 L 19 235 A 0 0 0 0 1 19 235 L 10 235 A 0 0 0 0 1 10 235 L 10 234 A 2 2 0 0 1 12 232 Z" stroke="#ffffff" stroke-width="0" opacity="1" filter="none" class="highcharts-point highcharts-color-2" tabindex="-1" role="img" aria-label="2002, 20.2. Private debt funds (dry powder)." style="outline: none;"></path><path fill="#5a6d78" d="M 42 231 L 47 231 A 2 2 0 0 1 49 233 L 49 235 A 0 0 0 0 1 49 235 L 40 235 A 0 0 0 0 1 40 235 L 40 233 A 2 2 0 0 1 42 231 Z" stroke="#ffffff" stroke-width="0" opacity="1" filter="none" class="highcharts-point highcharts-color-2" tabindex="-1" role="img" aria-label="2003, 24.5. Private debt funds (dry powder)." style="outline: none;"></path><path fill="#5a6d78" d="M 71 229 L 76 229 A 2 2 0 0 1 78 231 L 78 234 A 0 0 0 0 1 78 234 L 69 234 A 0 0 0 0 1 69 234 L 69 231 A 2 2 0 0 1 71 229 Z" stroke="#ffffff" stroke-width="0" opacity="1" filter="none" class="highcharts-point highcharts-color-2" tabindex="-1" role="img" aria-label="2004, 25.8. Private debt funds (dry powder)." style="outline: none;"></path><path fill="#5a6d78" d="M 100 227 L 105 227 A 2 2 0 0 1 107 229 L 107 231 A 0 0 0 0 1 107 231 L 98 231 A 0 0 0 0 1 98 231 L 98 229 A 2 2 0 0 1 100 227 Z" stroke="#ffffff" stroke-width="0" opacity="1" filter="none" class="highcharts-point highcharts-color-2" tabindex="-1" role="img" aria-label="2005, 26.6. Private debt funds (dry powder)." style="outline: none;"></path><path fill="#5a6d78" d="M 130 221 L 135 221 A 2 2 0 0 1 137 223 L 137 228 A 0 0 0 0 1 137 228 L 128 228 A 0 0 0 0 1 128 228 L 128 223 A 2 2 0 0 1 130 221 Z" stroke="#ffffff" stroke-width="0" opacity="1" filter="none" class="highcharts-point highcharts-color-2" tabindex="-1" role="img" aria-label="2006, 38.3. Private debt funds (dry powder)." style="outline: none;"></path><path fill="#5a6d78" d="M 159 212 L 164 212 A 2 2 0 0 1 166 214 L 166 222 A 0 0 0 0 1 166 222 L 157 222 A 0 0 0 0 1 157 222 L 157 214 A 2 2 0 0 1 159 212 Z" stroke="#ffffff" stroke-width="0" opacity="1" filter="none" class="highcharts-point highcharts-color-2" tabindex="-1" role="img" aria-label="2007, 60.7. Private debt funds (dry powder)." style="outline: none;"></path><path fill="#5a6d78" d="M 188 206 L 193 206 A 2 2 0 0 1 195 208 L 195 217 A 0 0 0 0 1 195 217 L 186 217 A 0 0 0 0 1 186 217 L 186 208 A 2 2 0 0 1 188 206 Z" stroke="#ffffff" stroke-width="0" opacity="1" filter="none" class="highcharts-point highcharts-color-2" tabindex="-1" role="img" aria-label="2008, 69.7. Private debt funds (dry powder)." style="outline: none;"></path><path fill="#5a6d78" d="M 217 199 L 222 199 A 2 2 0 0 1 224 201 L 224 210 A 0 0 0 0 1 224 210 L 215 210 A 0 0 0 0 1 215 210 L 215 201 A 2 2 0 0 1 217 199 Z" stroke="#ffffff" stroke-width="0" opacity="1" filter="none" class="highcharts-point highcharts-color-2" tabindex="-1" role="img" aria-label="2009, 64.5. Private debt funds (dry powder)." style="outline: none;"></path><path fill="#5a6d78" d="M 247 194 L 252 194 A 2 2 0 0 1 254 196 L 254 205 A 0 0 0 0 1 254 205 L 245 205 A 0 0 0 0 1 245 205 L 245 196 A 2 2 0 0 1 247 194 Z" stroke="#ffffff" stroke-width="0" opacity="1" filter="none" class="highcharts-point highcharts-color-2" tabindex="-1" role="img" aria-label="2010, 73. Private debt funds (dry powder)." style="outline: none;"></path><path fill="#5a6d78" d="M 276 193 L 281 193 A 2 2 0 0 1 283 195 L 283 206 A 0 0 0 0 1 283 206 L 274 206 A 0 0 0 0 1 274 206 L 274 195 A 2 2 0 0 1 276 193 Z" stroke="#ffffff" stroke-width="0" opacity="1" filter="none" class="highcharts-point highcharts-color-2" tabindex="-1" role="img" aria-label="2011, 74.6. Private debt funds (dry powder)." style="outline: none;"></path><path fill="#5a6d78" d="M 305 190 L 310 190 A 2 2 0 0 1 312 192 L 312 203 A 0 0 0 0 1 312 203 L 303 203 A 0 0 0 0 1 303 203 L 303 192 A 2 2 0 0 1 305 190 Z" stroke="#ffffff" stroke-width="0" opacity="1" filter="none" class="highcharts-point highcharts-color-2" tabindex="-1" role="img" aria-label="2012, 77.7. Private debt funds (dry powder)." style="outline: none;"></path><path fill="#5a6d78" d="M 335 185 L 340 185 A 2 2 0 0 1 342 187 L 342 202 A 0 0 0 0 1 342 202 L 333 202 A 0 0 0 0 1 333 202 L 333 187 A 2 2 0 0 1 335 185 Z" stroke="#ffffff" stroke-width="0" opacity="1" filter="none" class="highcharts-point highcharts-color-2" tabindex="-1" role="img" aria-label="2013, 102.6. Private debt funds (dry powder)." style="outline: none;"></path><path fill="#5a6d78" d="M 364 181 L 369 181 A 2 2 0 0 1 371 183 L 371 197 A 0 0 0 0 1 371 197 L 362 197 A 0 0 0 0 1 362 197 L 362 183 A 2 2 0 0 1 364 181 Z" stroke="#ffffff" stroke-width="0" opacity="1" filter="none" class="highcharts-point highcharts-color-2" tabindex="-1" role="img" aria-label="2014, 96.2. Private debt funds (dry powder)." style="outline: none;"></path><path fill="#5a6d78" d="M 393 178 L 398 178 A 2 2 0 0 1 400 180 L 400 196 A 0 0 0 0 1 400 196 L 391 196 A 0 0 0 0 1 391 196 L 391 180 A 2 2 0 0 1 393 178 Z" stroke="#ffffff" stroke-width="0" opacity="1" filter="none" class="highcharts-point highcharts-color-2" tabindex="-1" role="img" aria-label="2015, 113. Private debt funds (dry powder)." style="outline: none;"></path><path fill="#5a6d78" d="M 423 168 L 428 168 A 2 2 0 0 1 430 170 L 430 192 A 0 0 0 0 1 430 192 L 421 192 A 0 0 0 0 1 421 192 L 421 170 A 2 2 0 0 1 423 168 Z" stroke="#ffffff" stroke-width="0" opacity="1" filter="none" class="highcharts-point highcharts-color-2" tabindex="-1" role="img" aria-label="2016, 149.2. Private debt funds (dry powder)." style="outline: none;"></path><path fill="#5a6d78" d="M 452 158 L 457 158 A 2 2 0 0 1 459 160 L 459 187 A 0 0 0 0 1 459 187 L 450 187 A 0 0 0 0 1 450 187 L 450 160 A 2 2 0 0 1 452 158 Z" stroke="#ffffff" stroke-width="0" opacity="1" filter="none" class="highcharts-point highcharts-color-2" tabindex="-1" role="img" aria-label="2017, 178.1. Private debt funds (dry powder)." style="outline: none;"></path><path fill="#5a6d78" d="M 481 146 L 486 146 A 2 2 0 0 1 488 148 L 488 179 A 0 0 0 0 1 488 179 L 479 179 A 0 0 0 0 1 479 179 L 479 148 A 2 2 0 0 1 481 146 Z" stroke="#ffffff" stroke-width="0" opacity="1" filter="none" class="highcharts-point highcharts-color-2" tabindex="-1" role="img" aria-label="2018, 205.3. Private debt funds (dry powder)." style="outline: none;"></path><path fill="#5a6d78" d="M 511 133 L 516 133 A 2 2 0 0 1 518 135 L 518 168 A 0 0 0 0 1 518 168 L 509 168 A 0 0 0 0 1 509 168 L 509 135 A 2 2 0 0 1 511 133 Z" stroke="#ffffff" stroke-width="0" opacity="1" filter="none" class="highcharts-point highcharts-color-2" tabindex="-1" role="img" aria-label="2019, 214.9. Private debt funds (dry powder)." style="outline: none;"></path><path fill="#5a6d78" d="M 540 110 L 545 110 A 2 2 0 0 1 547 112 L 547 154 A 0 0 0 0 1 547 154 L 538 154 A 0 0 0 0 1 538 154 L 538 112 A 2 2 0 0 1 540 110 Z" stroke="#ffffff" stroke-width="0" opacity="1" filter="none" class="highcharts-point highcharts-color-2" tabindex="-1" role="img" aria-label="2020, 270.9. Private debt funds (dry powder)." style="outline: none;"></path><path fill="#5a6d78" d="M 569 74 L 574 74 A 2 2 0 0 1 576 76 L 576 118 A 0 0 0 0 1 576 118 L 567 118 A 0 0 0 0 1 567 118 L 567 76 A 2 2 0 0 1 569 74 Z" stroke="#ffffff" stroke-width="0" opacity="1" filter="none" class="highcharts-point highcharts-color-2" tabindex="-1" role="img" aria-label="2021, 272.4. Private debt funds (dry powder)." style="outline: none;"></path><path fill="#5a6d78" d="M 598 53 L 603 53 A 2 2 0 0 1 605 55 L 605 95 A 0 0 0 0 1 605 95 L 596 95 A 0 0 0 0 1 596 95 L 596 55 A 2 2 0 0 1 598 53 Z" stroke="#ffffff" stroke-width="0" opacity="1" filter="none" class="highcharts-point highcharts-color-2" tabindex="-1" role="img" aria-label="2022, 262.6. Private debt funds (dry powder)." style="outline: none;"></path><path fill="#5a6d78" d="M 628 26 L 633 26 A 2 2 0 0 1 635 28 L 635 71 A 0 0 0 0 1 635 71 L 626 71 A 0 0 0 0 1 626 71 L 626 28 A 2 2 0 0 1 628 26 Z" stroke="#ffffff" stroke-width="0" opacity="1" filter="none" class="highcharts-point highcharts-color-2" tabindex="-1" role="img" aria-label="2023, 279.8. Private debt funds (dry powder)." style="outline: none;"></path><path fill="#5a6d78" d="M 657 15 L 662 15 A 2 2 0 0 1 664 17 L 664 60 A 0 0 0 0 1 664 60 L 655 60 A 0 0 0 0 1 655 60 L 655 17 A 2 2 0 0 1 657 15 Z" stroke="#ffffff" stroke-width="0" opacity="1" filter="none" class="highcharts-point highcharts-color-2" tabindex="-1" role="img" aria-label="2024*, 277.9. Private debt funds (dry powder)." style="outline: none;"></path></g><g class="highcharts-markers highcharts-series-2 highcharts-column-series highcharts-color-2" data-z-index="0.1" opacity="1" transform="translate(89,64) scale(1 1)" clip-path="none" aria-hidden="true"></g></g><g class="highcharts-datalabels-group" data-z-index="6" aria-hidden="true"></g><g class="highcharts-legend highcharts-no-tooltip" data-z-index="7" text-align="center" transform="translate(137,391)" aria-hidden="true"><rect fill="none" class="highcharts-legend-box" rx="0" ry="0" stroke="#999999" stroke-width="0" filter="none" x="0" y="0" width="499" height="38"></rect><g data-z-index="1"><g><g class="highcharts-legend-item highcharts-column-series highcharts-color-0 highcharts-series-0" data-z-index="1" transform="translate(8,3)"><text x="21" text-anchor="start" data-z-index="2" style="cursor: pointer; font-size: 0.8em; text-decoration: none; fill: rgb(51, 51, 51);" y="17">BDCs</text><rect x="2" y="6" rx="2" ry="2" width="12" height="12" fill="#73a22a" class="highcharts-point" data-z-index="3"></rect></g><g class="highcharts-legend-item highcharts-column-series highcharts-color-1 highcharts-series-1" data-z-index="1" transform="translate(80.296875,3)"><text x="21" y="17" text-anchor="start" data-z-index="2" style="cursor: pointer; font-size: 0.8em; text-decoration: none; fill: rgb(51, 51, 51);">Private debt funds (invested capital)</text><rect x="2" y="6" rx="2" ry="2" width="12" height="12" fill="#489cd2" class="highcharts-point" data-z-index="3"></rect></g><g class="highcharts-legend-item highcharts-column-series highcharts-color-2 highcharts-series-2" data-z-index="1" transform="translate(306.09375,3)"><text x="21" y="17" text-anchor="start" data-z-index="2" style="cursor: pointer; font-size: 0.8em; text-decoration: none; fill: rgb(51, 51, 51);">Private debt funds (dry powder)</text><rect x="2" y="6" rx="2" ry="2" width="12" height="12" fill="#5a6d78" class="highcharts-point" data-z-index="3"></rect></g></g></g></g><g class="highcharts-axis-labels highcharts-xaxis-labels" data-z-index="7" aria-hidden="true"><text x="106.4806010377927" text-anchor="end" transform="translate(0,0) rotate(-45 106.4806010377927 329)" style="cursor: default; font-size: 0.8em; fill: rgb(90, 109, 120);" y="329" opacity="1">2002</text><text x="135.78494886387273" text-anchor="end" transform="translate(0,0) rotate(-45 135.78494886387273 329)" style="cursor: default; font-size: 0.8em; fill: rgb(90, 109, 120);" y="329" opacity="1">2003</text><text x="165.0892966899627" text-anchor="end" transform="translate(0,0) rotate(-45 165.0892966899627 329)" style="cursor: default; font-size: 0.8em; fill: rgb(90, 109, 120);" y="329" opacity="1">2004</text><text x="194.39364451605272" text-anchor="end" transform="translate(0,0) rotate(-45 194.39364451605272 329)" style="cursor: default; font-size: 0.8em; fill: rgb(90, 109, 120);" y="329" opacity="1">2005</text><text x="223.69799234213272" text-anchor="end" transform="translate(0,0) rotate(-45 223.69799234213272 329)" style="cursor: default; font-size: 0.8em; fill: rgb(90, 109, 120);" y="329" opacity="1">2006</text><text x="253.00234016822273" text-anchor="end" transform="translate(0,0) rotate(-45 253.00234016822273 329)" style="cursor: default; font-size: 0.8em; fill: rgb(90, 109, 120);" y="329" opacity="1">2007</text><text x="282.3066879943127" text-anchor="end" transform="translate(0,0) rotate(-45 282.3066879943127 329)" style="cursor: default; font-size: 0.8em; fill: rgb(90, 109, 120);" y="329" opacity="1">2008</text><text x="311.6110358204027" text-anchor="end" transform="translate(0,0) rotate(-45 311.6110358204027 329)" style="cursor: default; font-size: 0.8em; fill: rgb(90, 109, 120);" y="329" opacity="1">2009</text><text x="340.9153836464827" text-anchor="end" transform="translate(0,0) rotate(-45 340.9153836464827 329)" style="cursor: default; font-size: 0.8em; fill: rgb(90, 109, 120);" y="329" opacity="1">2010</text><text x="370.21973147257273" text-anchor="end" transform="translate(0,0) rotate(-45 370.21973147257273 329)" style="cursor: default; font-size: 0.8em; fill: rgb(90, 109, 120);" y="329" opacity="1">2011</text><text x="399.52407929866274" text-anchor="end" transform="translate(0,0) rotate(-45 399.52407929866274 329)" style="cursor: default; font-size: 0.8em; fill: rgb(90, 109, 120);" y="329" opacity="1">2012</text><text x="428.8284271247427" text-anchor="end" transform="translate(0,0) rotate(-45 428.8284271247427 329)" style="cursor: default; font-size: 0.8em; fill: rgb(90, 109, 120);" y="329" opacity="1">2013</text><text x="458.1327749508327" text-anchor="end" transform="translate(0,0) rotate(-45 458.1327749508327 329)" style="cursor: default; font-size: 0.8em; fill: rgb(90, 109, 120);" y="329" opacity="1">2014</text><text x="487.4371227769227" text-anchor="end" transform="translate(0,0) rotate(-45 487.4371227769227 329)" style="cursor: default; font-size: 0.8em; fill: rgb(90, 109, 120);" y="329" opacity="1">2015</text><text x="516.7414706030028" text-anchor="end" transform="translate(0,0) rotate(-45 516.7414706030028 329)" style="cursor: default; font-size: 0.8em; fill: rgb(90, 109, 120);" y="329" opacity="1">2016</text><text x="546.0458184290927" text-anchor="end" transform="translate(0,0) rotate(-45 546.0458184290927 329)" style="cursor: default; font-size: 0.8em; fill: rgb(90, 109, 120);" y="329" opacity="1">2017</text><text x="575.3501662551827" text-anchor="end" transform="translate(0,0) rotate(-45 575.3501662551827 329)" style="cursor: default; font-size: 0.8em; fill: rgb(90, 109, 120);" y="329" opacity="1">2018</text><text x="604.6545140812727" text-anchor="end" transform="translate(0,0) rotate(-45 604.6545140812727 329)" style="cursor: default; font-size: 0.8em; fill: rgb(90, 109, 120);" y="329" opacity="1">2019</text><text x="633.9588619073527" text-anchor="end" transform="translate(0,0) rotate(-45 633.9588619073527 329)" style="cursor: default; font-size: 0.8em; fill: rgb(90, 109, 120);" y="329" opacity="1">2020</text><text x="663.2632097334427" text-anchor="end" transform="translate(0,0) rotate(-45 663.2632097334427 329)" style="cursor: default; font-size: 0.8em; fill: rgb(90, 109, 120);" y="329" opacity="1">2021</text><text x="692.5675575595327" text-anchor="end" transform="translate(0,0) rotate(-45 692.5675575595327 329)" style="cursor: default; font-size: 0.8em; fill: rgb(90, 109, 120);" y="329" opacity="1">2022</text><text x="721.8719053856128" text-anchor="end" transform="translate(0,0) rotate(-45 721.8719053856128 329)" style="cursor: default; font-size: 0.8em; fill: rgb(90, 109, 120);" y="329" opacity="1">2023</text><text x="751.1762532117027" text-anchor="end" transform="translate(0,0) rotate(-45 751.1762532117027 329)" style="cursor: default; font-size: 0.8em; fill: rgb(90, 109, 120);" y="329" opacity="1">2024*</text></g><g class="highcharts-axis-labels highcharts-yaxis-labels" data-z-index="7" aria-hidden="true"><text x="74" text-anchor="end" transform="translate(0,0)" style="cursor: default; font-size: 0.8em; fill: rgb(90, 109, 120);" y="311" opacity="1">0</text><text x="74" text-anchor="end" transform="translate(0,0)" style="cursor: default; font-size: 0.8em; fill: rgb(90, 109, 120);" y="230" opacity="1">500</text><text x="74" text-anchor="end" transform="translate(0,0)" style="cursor: default; font-size: 0.8em; fill: rgb(90, 109, 120);" y="150" opacity="1">1000</text><text x="74" text-anchor="end" transform="translate(0,0)" style="cursor: default; font-size: 0.8em; fill: rgb(90, 109, 120);" y="69" opacity="1">1500</text></g><text x="763" class="highcharts-credits" text-anchor="end" data-z-index="8" text-align="right" y="439" style="cursor: pointer; font-size: 0.6em; fill: rgb(90, 109, 120);" aria-label="Chart credits: " aria-hidden="false"></text><g class="highcharts-control-points" data-z-index="99" clip-path="url(#highcharts-7m8do89-80-)" aria-hidden="true"></g></svg>