<svg version="1.1" class="highcharts-root" style="font-family: DwsSlab; font-size: 1rem;" xmlns="http://www.w3.org/2000/svg" width="773" height="425" viewBox="0 0 773 425" aria-hidden="false" aria-label="Interactive chart"><desc aria-hidden="true">Created with Highcharts 12.4.0</desc><defs aria-hidden="true"><filter id="highcharts-drop-shadow-0"><feDropShadow dx="1" dy="1" flood-color="#000000" flood-opacity="0.75" stdDeviation="2.5"></feDropShadow></filter><clipPath id="highcharts-43ztsdz-10-"><rect x="0" y="0" width="688" height="246" fill="none"></rect></clipPath><clipPath id="highcharts-43ztsdz-14-"><rect x="75" y="64" width="688" height="246" fill="none"></rect></clipPath></defs><rect fill="#ffffff" class="highcharts-background" filter="none" x="0" y="0" width="773" height="425" rx="0" ry="0" aria-hidden="true"></rect><rect fill="none" class="highcharts-plot-background" x="75" y="64" width="688" height="246" filter="none" aria-hidden="true"></rect><g class="highcharts-pane-group" data-z-index="0" aria-hidden="true"></g><g class="highcharts-grid highcharts-xaxis-grid" data-z-index="1" aria-hidden="true"><path fill="none" stroke="#ebeef0" stroke-width="0" stroke-dasharray="none" data-z-index="1" class="highcharts-grid-line" d="M 304.5 64 L 304.5 310" opacity="1"></path><path fill="none" stroke="#ebeef0" stroke-width="0" stroke-dasharray="none" data-z-index="1" class="highcharts-grid-line" d="M 533.5 64 L 533.5 310" opacity="1"></path><path fill="none" stroke="#ebeef0" stroke-width="0" stroke-dasharray="none" data-z-index="1" class="highcharts-grid-line" d="M 763.5 64 L 763.5 310" opacity="1"></path><path fill="none" stroke="#ebeef0" stroke-width="0" stroke-dasharray="none" data-z-index="1" class="highcharts-grid-line" d="M 75.5 64 L 75.5 310" opacity="1"></path></g><g class="highcharts-grid highcharts-yaxis-grid" data-z-index="1" aria-hidden="true"><path fill="none" stroke="#ebeef0" stroke-width="1" stroke-dasharray="none" data-z-index="1" class="highcharts-grid-line" d="M 75 310.5 L 763 310.5" opacity="1"></path><path fill="none" stroke="#ebeef0" stroke-width="1" stroke-dasharray="none" data-z-index="1" class="highcharts-grid-line" d="M 75 248.5 L 763 248.5" opacity="1"></path><path fill="none" stroke="#ebeef0" stroke-width="1" stroke-dasharray="none" data-z-index="1" class="highcharts-grid-line" d="M 75 187.5 L 763 187.5" opacity="1"></path><path fill="none" stroke="#ebeef0" stroke-width="1" stroke-dasharray="none" data-z-index="1" class="highcharts-grid-line" d="M 75 125.5 L 763 125.5" opacity="1"></path><path fill="none" stroke="#ebeef0" stroke-width="1" stroke-dasharray="none" data-z-index="1" class="highcharts-grid-line" d="M 75 64.5 L 763 64.5" opacity="1"></path></g><rect fill="none" class="highcharts-plot-border" data-z-index="1" stroke="#cccccc" stroke-width="0" x="75" y="64" width="688" height="246" aria-hidden="true"></rect><g class="highcharts-axis highcharts-xaxis" data-z-index="2" aria-hidden="true"><path fill="none" class="highcharts-axis-line" stroke="#ebeef0" stroke-width="1" data-z-index="7" d="M 75 310.5 L 763 310.5"></path></g><g class="highcharts-axis highcharts-yaxis" data-z-index="2" aria-hidden="true"><path fill="none" class="highcharts-axis-line" stroke="#ebeef0" stroke-width="0" data-z-index="7" d="M 75 64 L 75 310"></path></g><g class="highcharts-series-group" data-z-index="3" filter="none" aria-hidden="false"><g class="highcharts-series highcharts-series-0 highcharts-column-series highcharts-color-0 highcharts-tracker" data-z-index="0.1" opacity="1" transform="translate(75,64) scale(1 1)" clip-path="url(#highcharts-43ztsdz-10-)" aria-hidden="false" role="region" tabindex="-1" aria-label="1975.2016, bar series 1 of 2 with 3 bars." style="outline: none;"><path fill="#73a22a" d="M 12 185 L 114 185 A 0 0 0 0 1 114 185 L 114 222 A 2 2 0 0 1 112 224 L 14 224 A 2 2 0 0 1 12 222 L 12 185 A 0 0 0 0 1 12 185 Z" stroke="#ffffff" stroke-width="0" opacity="1" filter="none" class="highcharts-point highcharts-negative highcharts-color-0" tabindex="-1" role="img" aria-label="&lt; -2.5%, -0.1278. 1975.2016." style="outline: none;"></path><path fill="#73a22a" d="M 244 184 L 342 184 A 2 2 0 0 1 343.7320508075689 185 L 343.7320508075689 185 A 0 0 0 0 1 343.7320508075689 185 L 343.7320508075689 185 A 0 0 0 0 1 242.26794919243113 185 L 242.26794919243113 185 A 2 2 0 0 1 244 184 Z" stroke="#ffffff" stroke-width="0" opacity="1" filter="none" class="highcharts-point highcharts-color-0" tabindex="-1" role="img" aria-label="-2.5% - 2.5%, 0.0013. 1975.2016." style="outline: none;"></path><path fill="#73a22a" d="M 473 168 L 571 168 A 2 2 0 0 1 573 170 L 573 185 A 0 0 0 0 1 573 185 L 471 185 A 0 0 0 0 1 471 185 L 471 170 A 2 2 0 0 1 473 168 Z" stroke="#ffffff" stroke-width="0" opacity="1" filter="none" class="highcharts-point highcharts-color-0" tabindex="-1" role="img" aria-label="&gt; +2.5%, 0.0531. 1975.2016." style="outline: none;"></path></g><g class="highcharts-markers highcharts-series-0 highcharts-column-series highcharts-color-0" data-z-index="0.1" opacity="1" transform="translate(75,64) scale(1 1)" clip-path="none" aria-hidden="true"></g><g class="highcharts-series highcharts-series-1 highcharts-column-series highcharts-color-1 highcharts-tracker" data-z-index="0.1" opacity="1" transform="translate(75,64) scale(1 1)" clip-path="url(#highcharts-43ztsdz-10-)" aria-hidden="false" role="region" tabindex="-1" aria-label="2016.2026, bar series 2 of 2 with 3 bars." style="outline: none;"><path fill="#489cd2" d="M 118 84 L 216 84 A 2 2 0 0 1 218 86 L 218 185 A 0 0 0 0 1 218 185 L 116 185 A 0 0 0 0 1 116 185 L 116 86 A 2 2 0 0 1 118 84 Z" stroke="#ffffff" stroke-width="0" opacity="1" filter="none" class="highcharts-point highcharts-color-1" tabindex="-1" role="img" aria-label="&lt; -2.5%, 0.3255. 2016.2026." style="outline: none;"></path><path fill="#489cd2" d="M 347 176 L 445 176 A 2 2 0 0 1 447 178 L 447 185 A 0 0 0 0 1 447 185 L 345 185 A 0 0 0 0 1 345 185 L 345 178 A 2 2 0 0 1 347 176 Z" stroke="#ffffff" stroke-width="0" opacity="1" filter="none" class="highcharts-point highcharts-color-1" tabindex="-1" role="img" aria-label="-2.5% - 2.5%, 0.0287. 2016.2026." style="outline: none;"></path><path fill="#489cd2" d="M 576 54 L 674 54 A 2 2 0 0 1 676 56 L 676 185 A 0 0 0 0 1 676 185 L 574 185 A 0 0 0 0 1 574 185 L 574 56 A 2 2 0 0 1 576 54 Z" stroke="#ffffff" stroke-width="0" opacity="1" filter="none" class="highcharts-point highcharts-color-1" tabindex="-1" role="img" aria-label="&gt; +2.5%, 0.4252. 2016.2026." style="outline: none;"></path></g><g class="highcharts-markers highcharts-series-1 highcharts-column-series highcharts-color-1" data-z-index="0.1" opacity="1" transform="translate(75,64) scale(1 1)" clip-path="none" aria-hidden="true"></g></g><g class="highcharts-exporting-group" data-z-index="3" aria-hidden="true"><g class="highcharts-no-tooltip highcharts-button highcharts-contextbutton" stroke-linecap="round" style="cursor: pointer;" transform="translate(735,5)"><title>Chart context menu</title><rect fill="#ffffff" class="highcharts-button-box" x="0.5" y="0.5" width="28" height="28" rx="2" ry="2" stroke="none" stroke-width="1"></rect><path fill="#666666" d="M 8 9.5 L 22 9.5 M 8 14.5 L 22 14.5 M 8 19.5 L 22 19.5" class="highcharts-button-symbol" data-z-index="1" stroke="#666666" stroke-width="3"></path><text x="28" data-z-index="1" y="18.5" text-anchor="end" style="font-size: 0.8em; font-weight: normal; fill: rgb(51, 51, 51);"></text></g></g><text x="10" text-anchor="start" class="highcharts-caption" data-z-index="4" style="font-size: 14px; font-family: DwsSans; fill: rgb(24, 30, 32);" text-align="left" y="424" transform-origin="10 17" transform="translate(0,0) scale(1 1)" aria-hidden="true"></text><g class="highcharts-datalabels-group" data-z-index="6" aria-hidden="true"></g><g class="highcharts-legend highcharts-no-tooltip" data-z-index="7" text-align="left" transform="translate(10,372)" aria-hidden="true"><rect fill="none" class="highcharts-legend-box" rx="0" ry="0" stroke="#999999" stroke-width="0" filter="none" x="0" y="0" width="187" height="38"></rect><g data-z-index="1"><g><g class="highcharts-legend-item highcharts-column-series highcharts-color-0 highcharts-series-0" data-z-index="1" transform="translate(8,3)"><text x="21" text-anchor="start" data-z-index="2" style="cursor: pointer; font-size: 0.8em; text-decoration: none; fill: rgb(51, 51, 51);" y="17">1975.2016</text><rect x="2" y="6" rx="2" ry="2" width="12" height="12" fill="#73a22a" class="highcharts-point" data-z-index="3"></rect></g><g class="highcharts-legend-item highcharts-column-series highcharts-color-1 highcharts-series-1" data-z-index="1" transform="translate(103.390625,3)"><text x="21" y="17" text-anchor="start" data-z-index="2" style="cursor: pointer; font-size: 0.8em; text-decoration: none; fill: rgb(51, 51, 51);">2016.2026</text><rect x="2" y="6" rx="2" ry="2" width="12" height="12" fill="#489cd2" class="highcharts-point" data-z-index="3"></rect></g></g></g></g><g class="highcharts-axis-labels highcharts-xaxis-labels" data-z-index="7" aria-hidden="true"><text x="189.66666666666333" style="cursor: default; font-size: 0.8em; fill: rgb(90, 109, 120);" text-anchor="middle" transform="translate(0,0)" y="337" opacity="1">&lt; -2.5%</text><text x="419.00000000000335" style="cursor: default; font-size: 0.8em; fill: rgb(90, 109, 120);" text-anchor="middle" transform="translate(0,0)" y="337" opacity="1">-2.5% - 2.5%</text><text x="648.3333333333334" style="cursor: default; font-size: 0.8em; fill: rgb(90, 109, 120);" text-anchor="middle" transform="translate(0,0)" y="337" opacity="1">&gt; +2.5%</text></g><g class="highcharts-axis-labels highcharts-yaxis-labels" data-z-index="7" aria-hidden="true"><text x="60" text-anchor="end" transform="translate(0,0)" style="cursor: default; font-size: 0.8em; fill: rgb(90, 109, 120);" y="315" opacity="1">-0.2</text><text x="60" text-anchor="end" transform="translate(0,0)" style="cursor: default; font-size: 0.8em; fill: rgb(90, 109, 120);" y="254" opacity="1">0</text><text x="60" text-anchor="end" transform="translate(0,0)" style="cursor: default; font-size: 0.8em; fill: rgb(90, 109, 120);" y="192" opacity="1">0.2</text><text x="60" text-anchor="end" transform="translate(0,0)" style="cursor: default; font-size: 0.8em; fill: rgb(90, 109, 120);" y="131" opacity="1">0.4</text><text x="60" text-anchor="end" transform="translate(0,0)" style="cursor: default; font-size: 0.8em; fill: rgb(90, 109, 120);" y="69" opacity="1">0.6</text></g><text x="763" class="highcharts-credits" text-anchor="end" data-z-index="8" text-align="right" y="420" style="cursor: pointer; font-size: 0.6em; fill: rgb(90, 109, 120);" aria-label="Chart credits: " aria-hidden="false"></text><g class="highcharts-control-points" data-z-index="99" clip-path="url(#highcharts-43ztsdz-14-)" aria-hidden="true"></g></svg>