<svg version="1.1" class="highcharts-root" style="font-family: DwsSlab; font-size: 1rem;" xmlns="http://www.w3.org/2000/svg" width="773" height="425" viewBox="0 0 773 425" aria-hidden="false" aria-label="Interactive chart"><desc aria-hidden="true">Created with Highcharts 12.4.0</desc><defs aria-hidden="true"><filter id="highcharts-drop-shadow-0"><feDropShadow dx="1" dy="1" flood-color="#000000" flood-opacity="0.75" stdDeviation="2.5"></feDropShadow></filter><clipPath id="highcharts-hpbddv3-10-"><rect x="0" y="0" width="696" height="250" fill="none"></rect></clipPath><clipPath id="highcharts-hpbddv3-14-"><rect x="67" y="60" width="696" height="250" fill="none"></rect></clipPath></defs><rect fill="#ffffff" class="highcharts-background" filter="none" x="0" y="0" width="773" height="425" rx="0" ry="0" aria-hidden="true"></rect><rect fill="none" class="highcharts-plot-background" x="67" y="60" width="696" height="250" filter="none" aria-hidden="true"></rect><g class="highcharts-pane-group" data-z-index="0" aria-hidden="true"></g><g class="highcharts-grid highcharts-xaxis-grid" data-z-index="1" aria-hidden="true"><path fill="none" stroke="#ebeef0" stroke-width="0" stroke-dasharray="none" data-z-index="1" class="highcharts-grid-line" d="M 299.5 60 L 299.5 310" opacity="1"></path><path fill="none" stroke="#ebeef0" stroke-width="0" stroke-dasharray="none" data-z-index="1" class="highcharts-grid-line" d="M 531.5 60 L 531.5 310" opacity="1"></path><path fill="none" stroke="#ebeef0" stroke-width="0" stroke-dasharray="none" data-z-index="1" class="highcharts-grid-line" d="M 763.5 60 L 763.5 310" opacity="1"></path><path fill="none" stroke="#ebeef0" stroke-width="0" stroke-dasharray="none" data-z-index="1" class="highcharts-grid-line" d="M 67.5 60 L 67.5 310" opacity="1"></path></g><g class="highcharts-grid highcharts-yaxis-grid" data-z-index="1" aria-hidden="true"><path fill="none" stroke="#ebeef0" stroke-width="1" stroke-dasharray="none" data-z-index="1" class="highcharts-grid-line" d="M 67 310.5 L 763 310.5" opacity="1"></path><path fill="none" stroke="#ebeef0" stroke-width="1" stroke-dasharray="none" data-z-index="1" class="highcharts-grid-line" d="M 67 260.5 L 763 260.5" opacity="1"></path><path fill="none" stroke="#ebeef0" stroke-width="1" stroke-dasharray="none" data-z-index="1" class="highcharts-grid-line" d="M 67 210.5 L 763 210.5" opacity="1"></path><path fill="none" stroke="#ebeef0" stroke-width="1" stroke-dasharray="none" data-z-index="1" class="highcharts-grid-line" d="M 67 160.5 L 763 160.5" opacity="1"></path><path fill="none" stroke="#ebeef0" stroke-width="1" stroke-dasharray="none" data-z-index="1" class="highcharts-grid-line" d="M 67 110.5 L 763 110.5" opacity="1"></path><path fill="none" stroke="#ebeef0" stroke-width="1" stroke-dasharray="none" data-z-index="1" class="highcharts-grid-line" d="M 67 60.5 L 763 60.5" opacity="1"></path></g><rect fill="none" class="highcharts-plot-border" data-z-index="1" stroke="#cccccc" stroke-width="0" x="67" y="60" width="696" height="250" aria-hidden="true"></rect><g class="highcharts-axis highcharts-xaxis" data-z-index="2" aria-hidden="true"><path fill="none" class="highcharts-axis-line" stroke="#ebeef0" stroke-width="1" data-z-index="7" d="M 67 310.5 L 763 310.5"></path></g><g class="highcharts-axis highcharts-yaxis" data-z-index="2" aria-hidden="true"><path fill="none" class="highcharts-axis-line" stroke="#ebeef0" stroke-width="0" data-z-index="7" d="M 67 60 L 67 310"></path></g><g class="highcharts-series-group" data-z-index="3" filter="none" aria-hidden="false"><g class="highcharts-series highcharts-series-0 highcharts-column-series highcharts-color-0 highcharts-tracker" data-z-index="0.1" opacity="1" transform="translate(67,60) scale(1 1)" clip-path="url(#highcharts-hpbddv3-10-)" aria-hidden="false" role="region" tabindex="-1" aria-label="Non-crisis, bar series 1 of 2 with 3 bars." style="outline: none;"><path fill="#73a22a" d="M 15 193 L 114 193 A 2 2 0 0 1 116 195 L 116 250 A 0 0 0 0 1 116 250 L 13 250 A 0 0 0 0 1 13 250 L 13 195 A 2 2 0 0 1 15 193 Z" stroke="#ffffff" stroke-width="0" opacity="1" filter="none" class="highcharts-point highcharts-color-0" tabindex="-1" role="img" aria-label="Electricity vs. oil, 0.114. Non-crisis." style="outline: none;"></path><path fill="#73a22a" d="M 247 198 L 346 198 A 2 2 0 0 1 348 200 L 348 250 A 0 0 0 0 1 348 250 L 245 250 A 0 0 0 0 1 245 250 L 245 200 A 2 2 0 0 1 247 198 Z" stroke="#ffffff" stroke-width="0" opacity="1" filter="none" class="highcharts-point highcharts-color-0" tabindex="-1" role="img" aria-label="Electricity vs. gas, 0.105. Non-crisis." style="outline: none;"></path><path fill="#73a22a" d="M 479 203 L 578 203 A 2 2 0 0 1 580 205 L 580 250 A 0 0 0 0 1 580 250 L 477 250 A 0 0 0 0 1 477 250 L 477 205 A 2 2 0 0 1 479 203 Z" stroke="#ffffff" stroke-width="0" opacity="1" filter="none" class="highcharts-point highcharts-color-0" tabindex="-1" role="img" aria-label="Oil vs. gas, 0.094. Non-crisis." style="outline: none;"></path></g><g class="highcharts-markers highcharts-series-0 highcharts-column-series highcharts-color-0" data-z-index="0.1" opacity="1" transform="translate(67,60) scale(1 1)" clip-path="none" aria-hidden="true"></g><g class="highcharts-series highcharts-series-1 highcharts-column-series highcharts-color-1 highcharts-tracker" data-z-index="0.1" opacity="1" transform="translate(67,60) scale(1 1)" clip-path="url(#highcharts-hpbddv3-10-)" aria-hidden="false" role="region" tabindex="-1" aria-label="Crisis, bar series 2 of 2 with 3 bars." style="outline: none;"><path fill="#489cd2" d="M 119 180 L 218 180 A 2 2 0 0 1 220 182 L 220 250 A 0 0 0 0 1 220 250 L 117 250 A 0 0 0 0 1 117 250 L 117 182 A 2 2 0 0 1 119 180 Z" stroke="#ffffff" stroke-width="0" opacity="1" filter="none" class="highcharts-point highcharts-color-1" tabindex="-1" role="img" aria-label="Electricity vs. oil, 0.141. Crisis." style="outline: none;"></path><path fill="#489cd2" d="M 351 49 L 450 49 A 2 2 0 0 1 452 51 L 452 250 A 0 0 0 0 1 452 250 L 349 250 A 0 0 0 0 1 349 250 L 349 51 A 2 2 0 0 1 351 49 Z" stroke="#ffffff" stroke-width="0" opacity="1" filter="none" class="highcharts-point highcharts-color-1" tabindex="-1" role="img" aria-label="Electricity vs. gas, 0.403. Crisis." style="outline: none;"></path><path fill="#489cd2" d="M 583 113 L 682 113 A 2 2 0 0 1 684 115 L 684 250 A 0 0 0 0 1 684 250 L 581 250 A 0 0 0 0 1 581 250 L 581 115 A 2 2 0 0 1 583 113 Z" stroke="#ffffff" stroke-width="0" opacity="1" filter="none" class="highcharts-point highcharts-color-1" tabindex="-1" role="img" aria-label="Oil vs. gas, 0.275. Crisis." style="outline: none;"></path></g><g class="highcharts-markers highcharts-series-1 highcharts-column-series highcharts-color-1" data-z-index="0.1" opacity="1" transform="translate(67,60) scale(1 1)" clip-path="none" aria-hidden="true"></g></g><g class="highcharts-exporting-group" data-z-index="3" aria-hidden="true"><g class="highcharts-no-tooltip highcharts-button highcharts-contextbutton" stroke-linecap="round" style="cursor: pointer;" transform="translate(735,5)"><title>Chart context menu</title><rect fill="#ffffff" class="highcharts-button-box" x="0.5" y="0.5" width="28" height="28" rx="2" ry="2" stroke="none" stroke-width="1"></rect><path fill="#666666" d="M 8 9.5 L 22 9.5 M 8 14.5 L 22 14.5 M 8 19.5 L 22 19.5" class="highcharts-button-symbol" data-z-index="1" stroke="#666666" stroke-width="3"></path><text x="28" data-z-index="1" y="18.5" text-anchor="end" style="font-size: 0.8em; font-weight: normal; fill: rgb(51, 51, 51);"></text></g></g><text x="10" text-anchor="start" class="highcharts-caption" data-z-index="4" style="font-size: 14px; font-family: DwsSans; fill: rgb(24, 30, 32);" text-align="left" y="424" transform-origin="10 17" transform="translate(0,0) scale(1 1)"></text><g class="highcharts-datalabels-group" data-z-index="6" aria-hidden="true"><g class="highcharts-data-labels highcharts-series-0 highcharts-column-series highcharts-color-0 highcharts-tracker" data-z-index="6" opacity="1" transform="translate(67,60) scale(1 1)"><g class="highcharts-label highcharts-data-label highcharts-data-label-color-0" data-z-index="1" filter="none" transform="translate(47,171)"><text x="17.28125" data-z-index="1" y="16" text-anchor="middle" style="font-size: 0.7em; font-weight: bold; fill: rgb(0, 0, 0);"><tspan class="highcharts-text-outline" fill="#FFFFFF" stroke="#FFFFFF" stroke-width="2px" stroke-linejoin="round">0.114<tspan x="17.28125" dy="0">​</tspan></tspan>0.114</text></g><g class="highcharts-label highcharts-data-label highcharts-data-label-color-0" data-z-index="1" filter="none" transform="translate(279,176)"><text x="17.28125" data-z-index="1" y="16" text-anchor="middle" style="font-size: 0.7em; font-weight: bold; fill: rgb(0, 0, 0);"><tspan class="highcharts-text-outline" fill="#FFFFFF" stroke="#FFFFFF" stroke-width="2px" stroke-linejoin="round">0.105<tspan x="17.28125" dy="0">​</tspan></tspan>0.105</text></g><g class="highcharts-label highcharts-data-label highcharts-data-label-color-0" data-z-index="1" filter="none" transform="translate(511,181)"><text x="17.28125" data-z-index="1" y="16" text-anchor="middle" style="font-size: 0.7em; font-weight: bold; fill: rgb(0, 0, 0);"><tspan class="highcharts-text-outline" fill="#FFFFFF" stroke="#FFFFFF" stroke-width="2px" stroke-linejoin="round">0.094<tspan x="17.28125" dy="0">​</tspan></tspan>0.094</text></g></g><g class="highcharts-data-labels highcharts-series-1 highcharts-column-series highcharts-color-1 highcharts-tracker" data-z-index="6" opacity="1" transform="translate(67,60) scale(1 1)"><g class="highcharts-label highcharts-data-label highcharts-data-label-color-1" data-z-index="1" filter="none" transform="translate(151,158)"><text x="17.28125" data-z-index="1" y="16" text-anchor="middle" style="font-size: 0.7em; font-weight: bold; fill: rgb(0, 0, 0);"><tspan class="highcharts-text-outline" fill="#FFFFFF" stroke="#FFFFFF" stroke-width="2px" stroke-linejoin="round">0.141<tspan x="17.28125" dy="0">​</tspan></tspan>0.141</text></g><g class="highcharts-label highcharts-data-label highcharts-data-label-color-1" data-z-index="1" filter="none" transform="translate(383,27)"><text x="17.28125" data-z-index="1" y="16" text-anchor="middle" style="font-size: 0.7em; font-weight: bold; fill: rgb(0, 0, 0);"><tspan class="highcharts-text-outline" fill="#FFFFFF" stroke="#FFFFFF" stroke-width="2px" stroke-linejoin="round">0.403<tspan x="17.28125" dy="0">​</tspan></tspan>0.403</text></g><g class="highcharts-label highcharts-data-label highcharts-data-label-color-1" data-z-index="1" filter="none" transform="translate(615,91)"><text x="17.28125" data-z-index="1" y="16" text-anchor="middle" style="font-size: 0.7em; font-weight: bold; fill: rgb(0, 0, 0);"><tspan class="highcharts-text-outline" fill="#FFFFFF" stroke="#FFFFFF" stroke-width="2px" stroke-linejoin="round">0.275<tspan x="17.28125" dy="0">​</tspan></tspan>0.275</text></g></g></g><g class="highcharts-legend highcharts-no-tooltip" data-z-index="7" text-align="left" transform="translate(10,372)" aria-hidden="true"><rect fill="none" class="highcharts-legend-box" rx="0" ry="0" stroke="#999999" stroke-width="0" filter="none" x="0" y="0" width="161" height="38"></rect><g data-z-index="1"><g><g class="highcharts-legend-item highcharts-column-series highcharts-color-0 highcharts-series-0" data-z-index="1" transform="translate(8,3)"><text x="21" text-anchor="start" data-z-index="2" style="cursor: pointer; font-size: 0.8em; text-decoration: none; fill: rgb(51, 51, 51);" y="17">Non-crisis</text><rect x="2" y="6" rx="2" ry="2" width="12" height="12" fill="#73a22a" class="highcharts-point" data-z-index="3"></rect></g><g class="highcharts-legend-item highcharts-column-series highcharts-color-1 highcharts-series-1" data-z-index="1" transform="translate(102.3125,3)"><text x="21" y="17" text-anchor="start" data-z-index="2" style="cursor: pointer; font-size: 0.8em; text-decoration: none; fill: rgb(51, 51, 51);">Crisis</text><rect x="2" y="6" rx="2" ry="2" width="12" height="12" fill="#489cd2" class="highcharts-point" data-z-index="3"></rect></g></g></g></g><g class="highcharts-axis-labels highcharts-xaxis-labels" data-z-index="7" aria-hidden="true"><text x="183" style="cursor: default; font-size: 0.8em; fill: rgb(90, 109, 120);" text-anchor="middle" transform="translate(0,0)" y="337" opacity="1">Electricity vs. oil</text><text x="415" style="cursor: default; font-size: 0.8em; fill: rgb(90, 109, 120);" text-anchor="middle" transform="translate(0,0)" y="337" opacity="1">Electricity vs. gas</text><text x="647" style="cursor: default; font-size: 0.8em; fill: rgb(90, 109, 120);" text-anchor="middle" transform="translate(0,0)" y="337" opacity="1">Oil vs. gas</text></g><g class="highcharts-axis-labels highcharts-yaxis-labels" data-z-index="7" aria-hidden="true"><text x="52" text-anchor="end" transform="translate(0,0)" style="cursor: default; font-size: 0.8em; fill: rgb(90, 109, 120);" y="315" opacity="1">0</text><text x="52" text-anchor="end" transform="translate(0,0)" style="cursor: default; font-size: 0.8em; fill: rgb(90, 109, 120);" y="265" opacity="1">0.1</text><text x="52" text-anchor="end" transform="translate(0,0)" style="cursor: default; font-size: 0.8em; fill: rgb(90, 109, 120);" y="215" opacity="1">0.2</text><text x="52" text-anchor="end" transform="translate(0,0)" style="cursor: default; font-size: 0.8em; fill: rgb(90, 109, 120);" y="165" opacity="1">0.3</text><text x="52" text-anchor="end" transform="translate(0,0)" style="cursor: default; font-size: 0.8em; fill: rgb(90, 109, 120);" y="115" opacity="1">0.4</text><text x="52" text-anchor="end" transform="translate(0,0)" style="cursor: default; font-size: 0.8em; fill: rgb(90, 109, 120);" y="65" opacity="1">0.5</text></g><text x="763" class="highcharts-credits" text-anchor="end" data-z-index="8" text-align="right" y="420" style="cursor: pointer; font-size: 0.6em; fill: rgb(90, 109, 120);" aria-label="Chart credits: " aria-hidden="false"></text><g class="highcharts-control-points" data-z-index="99" clip-path="url(#highcharts-hpbddv3-14-)" aria-hidden="true"></g></svg>